<?xml version="1.0" standalone="no"?>
<!DOCTYPE svg PUBLIC "-//W3C//DTD SVG 20010904//EN"
 "http://www.w3.org/TR/2001/REC-SVG-20010904/DTD/svg10.dtd">
<svg version="1.0" xmlns="http://www.w3.org/2000/svg"
 width="300.000000pt" height="169.000000pt" viewBox="0 0 300.000000 169.000000"
 preserveAspectRatio="xMidYMid meet">
<metadata>
Created by potrace 1.10, written by Peter Selinger 2001-2011
</metadata>
<g transform="translate(0.000000,169.000000) scale(0.100000,-0.100000)"
fill="#808000" stroke="none">
<path d="M110 1685 c0 -7 30 -13 34 -7 3 4 -4 9 -15 9 -10 1 -19 0 -19 -2z"/>
<path d="M64 1641 c-2 -2 -4 -183 -4 -402 0 -336 2 -399 14 -399 8 0 17 7 20
16 9 22 8 24 -9 18 -8 -4 -15 -2 -15 4 0 6 5 12 11 14 8 3 12 75 15 223 6 348
11 456 20 465 5 5 126 11 268 14 169 4 264 10 272 17 10 9 14 8 14 0 0 -8 226
-11 870 -10 479 1 870 6 870 10 0 5 5 9 11 9 5 0 7 -4 4 -10 -4 -6 44 -10 137
-11 79 0 170 -3 203 -5 33 -3 73 -6 89 -7 16 -1 31 -8 34 -16 4 -11 -8 -12
-63 -6 -52 5 -70 4 -76 -7 -5 -8 -9 -8 -9 -2 0 8 -62 12 -212 13 -158 1 -208
-2 -195 -10 10 -6 43 -9 73 -7 30 1 54 0 54 -4 0 -4 8 -5 18 -2 14 5 14 4 2
-4 -8 -6 -17 -9 -21 -7 -14 9 -41 -35 -37 -60 4 -17 1 -25 -8 -25 -8 0 -14 -5
-14 -10 0 -6 6 -10 13 -9 6 1 25 -3 40 -9 35 -15 50 -15 42 -2 -3 6 -2 10 4
10 6 0 8 7 4 15 -6 18 -29 14 -25 -4 1 -6 -2 -11 -8 -11 -20 0 -10 59 15 88
24 28 29 30 107 31 l83 1 -40 -19 c-40 -18 -63 -19 -35 -1 9 6 10 10 3 10 -17
0 -65 -61 -59 -76 3 -7 -2 -15 -10 -18 -19 -7 -18 21 1 58 20 37 19 43 -4 22
-14 -12 -18 -30 -18 -70 1 -42 -5 -59 -26 -88 -15 -19 -27 -41 -27 -49 0 -8
-4 -19 -9 -24 -5 -6 -19 -43 -30 -82 -24 -80 -41 -94 -41 -34 0 25 -12 63 -33
103 -31 59 -32 65 -18 90 13 23 13 34 2 80 -8 29 -18 59 -23 65 -6 7 -8 22 -5
33 4 17 0 20 -23 20 -16 0 -32 -5 -36 -11 -3 -6 -17 -8 -33 -4 -43 11 -175 23
-186 16 -5 -3 19 -9 55 -12 48 -4 59 -8 43 -13 -13 -5 -20 -13 -17 -18 4 -6
-2 -7 -17 -3 -21 7 -22 6 -10 -9 12 -14 12 -16 -5 -10 -18 5 -18 5 0 -10 24
-19 28 -19 -78 -1 -48 9 -106 25 -129 38 l-42 22 95 5 c52 3 88 8 80 11 -8 3
-44 5 -80 3 -78 -3 -294 -6 -306 -3 -35 6 -83 -3 -88 -17 -9 -25 1 -30 22 -11
15 14 36 17 96 15 43 -1 79 -6 82 -9 2 -4 19 -6 38 -3 22 2 38 -1 46 -11 20
-24 114 -54 194 -61 42 -4 79 -11 82 -15 3 -5 14 -9 25 -9 31 0 123 -57 165
-103 60 -65 77 -109 80 -208 2 -74 -2 -94 -23 -142 l-25 -55 -40 14 c-30 10
-39 11 -36 1 3 -6 22 -18 43 -25 39 -13 58 -29 49 -43 -2 -4 -30 -1 -61 6 -47
11 -59 11 -70 0 -7 -8 -13 -18 -13 -24 0 -6 -10 -10 -22 -8 -18 2 -24 -4 -26
-25 -3 -29 -16 -36 -28 -17 -3 6 -1 15 6 19 7 4 10 15 7 24 -4 9 -2 16 4 16 6
0 8 4 4 10 -3 5 -14 2 -25 -8 -23 -19 -26 -34 -5 -26 12 5 12 1 -2 -28 -21
-42 -33 -50 -53 -35 -13 10 -13 10 -1 -5 14 -19 43 -11 55 14 5 10 7 10 12 0
5 -10 9 -10 20 -1 8 7 14 7 14 1 0 -5 8 -13 17 -16 16 -6 16 -6 0 12 -44 48 9
74 53 27 22 -24 29 -25 108 -23 78 3 85 1 103 -21 24 -29 12 -41 -39 -41 -51
0 -112 -44 -127 -90 -10 -31 -66 -27 -107 9 -18 15 -50 34 -70 40 -20 7 -48
21 -62 32 -33 26 -66 17 -66 -16 0 -19 8 -26 38 -34 20 -6 42 -11 48 -11 5 0
20 -9 32 -20 24 -23 31 -80 9 -80 -39 0 -118 31 -158 61 -25 20 -67 41 -93 49
-50 14 -113 67 -137 116 -21 42 -4 99 43 146 20 20 44 48 54 63 9 14 19 23 22
20 3 -2 11 0 17 5 9 8 14 6 19 -5 3 -10 2 -14 -5 -10 -11 8 -34 -17 -50 -54
-11 -28 -8 -34 15 -25 11 4 15 13 10 27 -5 16 -3 19 10 14 10 -4 16 -1 16 8 0
23 17 18 23 -7 3 -13 9 -34 13 -47 4 -14 3 -22 -2 -18 -5 3 -10 -3 -10 -14 0
-13 5 -17 17 -14 13 5 16 1 12 -14 -4 -15 0 -20 15 -18 16 1 19 5 11 18 -13
25 -12 28 12 22 16 -4 20 -2 17 8 -3 9 -15 13 -32 11 -19 -3 -26 0 -21 8 4 6
2 17 -5 25 -8 10 -8 15 1 21 7 4 9 3 5 -4 -3 -6 2 -16 13 -22 21 -11 34 -1 23
16 -4 6 -22 19 -39 29 -34 20 -40 38 -23 65 7 11 10 8 10 -16 0 -27 3 -31 23
-27 36 7 51 -20 50 -90 0 -34 2 -56 4 -49 3 6 9 12 15 12 6 0 7 -7 4 -16 -3
-8 -2 -12 4 -9 6 3 10 2 10 -4 0 -5 -5 -12 -10 -14 -6 -3 -5 -4 2 -3 7 2 12
13 10 26 -2 18 1 20 11 12 8 -7 18 -7 27 -2 23 15 32 12 25 -9 -3 -11 -2 -22
3 -25 5 -3 9 10 10 29 1 33 1 33 -27 24 -53 -19 -82 4 -75 59 3 24 -2 43 -18
65 -13 18 -22 33 -20 35 1 1 2 3 1 5 0 1 -3 13 -5 27 -3 14 -9 27 -15 28 -6 3
-6 9 1 17 6 8 19 11 27 8 11 -4 14 -2 9 5 -4 7 -14 12 -22 12 -8 0 -14 6 -14
13 0 7 -10 17 -22 22 -13 6 -24 16 -24 23 -3 25 -4 25 -19 6 -12 -16 -16 -17
-24 -4 -5 8 -8 17 -5 21 2 4 -3 12 -11 19 -8 7 -15 16 -15 20 0 4 -18 27 -39
50 -39 42 -40 43 -89 36 -52 -7 -137 8 -148 26 -4 6 18 7 59 3 49 -5 78 -3
114 9 56 19 93 16 146 -9 45 -21 62 -11 27 15 -39 29 -115 35 -180 13 -36 -13
-66 -17 -85 -12 -65 15 -103 10 -132 -17 l-28 -26 32 6 c19 3 55 -3 90 -15 37
-13 77 -19 110 -17 28 2 49 0 47 -4 -6 -9 28 -43 70 -71 15 -11 25 -21 23 -23
-6 -6 -59 17 -75 33 -7 7 -21 13 -30 12 -11 0 -12 -2 -4 -6 6 -2 10 -9 6 -14
-3 -5 -2 -9 3 -8 18 5 60 -13 70 -30 10 -16 9 -18 -8 -14 -10 3 -19 1 -19 -5
0 -5 14 -8 31 -6 21 3 29 0 26 -9 -2 -6 -9 -11 -15 -10 -5 1 -23 -2 -40 -6
-17 -5 -34 -5 -39 0 -5 5 -23 -1 -43 -16 -39 -28 -33 -32 11 -9 39 20 50 11
12 -10 -19 -11 -23 -15 -10 -16 9 0 26 9 38 21 24 24 39 18 18 -7 -13 -16 -12
-16 9 -5 12 6 22 17 22 22 0 6 6 9 14 6 8 -3 24 3 37 14 28 24 36 24 49 0 13
-25 13 -91 0 -91 -5 0 -10 -7 -10 -16 0 -10 -5 -14 -16 -10 -19 7 -62 -20 -66
-42 -2 -13 -17 -16 -71 -17 -68 0 -68 0 -46 18 28 22 20 32 -9 11 -12 -8 -22
-24 -22 -35 0 -10 -5 -19 -11 -19 -15 0 -7 43 11 57 13 11 13 12 0 13 -20 0
-50 -54 -39 -71 5 -8 3 -20 -5 -29 -7 -8 -19 -30 -26 -49 l-14 -34 -18 23
c-10 12 -18 28 -18 36 0 8 -5 14 -11 14 -17 0 0 -43 27 -67 23 -21 33 -63 16
-63 -14 0 -66 59 -59 67 4 3 7 1 7 -5 0 -6 9 -16 20 -22 18 -9 17 -7 -5 26
-14 20 -25 41 -25 45 0 5 -8 9 -17 9 -17 -1 -17 -2 0 -14 16 -12 16 -17 5 -35
-7 -12 -16 -21 -20 -21 -5 0 -8 -5 -8 -11 0 -8 4 -8 13 0 10 8 19 4 35 -18 12
-16 31 -31 44 -33 15 -2 24 -13 30 -34 4 -17 21 -45 38 -62 34 -36 36 -42 15
-42 -8 0 -15 5 -15 10 0 6 -21 20 -46 30 -58 25 -67 25 -29 0 17 -11 38 -20
48 -20 9 0 17 -5 17 -11 0 -6 -7 -8 -16 -5 -8 3 -12 2 -9 -4 3 -6 13 -10 21
-10 23 0 16 -14 -15 -32 -33 -18 -50 -12 -23 8 9 7 12 14 6 14 -6 0 -17 -7
-25 -16 -10 -13 -10 -17 1 -24 8 -5 19 -5 25 0 5 4 35 10 65 12 30 2 63 8 73
12 10 5 17 4 17 -3 0 -6 -9 -11 -20 -11 -11 0 -20 -7 -20 -15 0 -13 -19 -20
-44 -16 -4 1 -13 -2 -20 -7 -6 -5 -24 -12 -41 -16 -29 -7 -29 -7 -10 8 11 8
26 16 33 16 7 0 10 5 7 11 -5 7 -14 5 -28 -4 -12 -8 -40 -17 -62 -21 -39 -8
-39 -7 -22 11 18 21 23 63 7 63 -5 0 -10 -12 -10 -26 0 -37 -75 -94 -124 -94
-16 0 -18 -2 -7 -9 8 -5 27 -5 45 1 17 5 39 12 49 15 33 10 7 -24 -31 -41
l-37 -16 38 4 c25 3 37 1 37 -8 0 -7 16 -35 35 -62 37 -52 45 -98 19 -108 -9
-3 -31 -6 -49 -6 -28 0 -41 9 -85 61 -29 33 -70 69 -91 80 -22 11 -39 20 -39
22 -1 1 -3 20 -6 42 -8 63 -64 127 -60 70 0 -14 7 -25 14 -25 7 0 12 -14 12
-35 0 -27 -4 -35 -17 -35 -10 0 -31 -7 -46 -15 -43 -22 -95 -13 -159 28 -60
38 -108 56 -108 40 0 -6 18 -15 40 -22 21 -6 45 -17 52 -24 36 -34 101 -68
119 -62 21 7 27 -10 7 -18 -8 -4 -7 -6 4 -6 9 -1 18 4 20 11 4 11 21 14 81 17
9 1 17 6 17 12 0 8 -13 9 -41 5 -47 -8 -46 9 2 19 21 5 36 2 47 -8 9 -8 35
-24 58 -35 23 -12 48 -32 58 -46 9 -14 15 -26 14 -26 -2 0 -43 -5 -93 -12 -49
-6 -108 -11 -130 -10 -32 0 -35 -1 -15 -7 23 -7 21 -8 -15 -14 -22 -4 -47 -7
-55 -7 -13 0 -13 1 0 10 11 7 6 8 -17 4 -22 -4 -33 -3 -33 5 0 6 8 11 18 12
11 0 12 2 4 6 -7 3 -19 -1 -27 -7 -9 -7 -26 -10 -42 -5 -20 5 -23 9 -13 15 19
12 -57 48 -128 61 -70 13 -112 30 -112 46 0 17 32 17 49 1 10 -11 11 -10 6 4
-4 9 -13 19 -20 22 -20 7 -56 -5 -48 -16 3 -6 0 -9 -7 -6 -22 7 -23 28 -3 28
11 0 24 5 31 12 9 9 15 9 24 0 15 -15 68 -16 68 -1 0 7 -11 8 -30 4 -36 -8
-39 6 -5 22 14 6 23 8 20 3 -6 -10 38 -22 92 -25 45 -2 77 -20 66 -38 -3 -6
-1 -7 6 -3 7 4 15 -2 20 -16 6 -13 10 -17 10 -10 2 44 -71 91 -143 92 -34 0
-37 2 -26 15 7 9 20 13 27 11 14 -6 73 19 73 30 0 3 -5 2 -10 -1 -6 -4 -22 -9
-37 -11 -23 -4 -25 -3 -13 11 7 8 20 13 29 10 10 -3 26 2 37 11 18 15 18 15
-10 9 -25 -5 -28 -4 -21 12 15 37 17 53 6 53 -22 0 -10 18 17 25 28 7 82 52
82 69 0 5 -15 -4 -33 -22 -37 -36 -47 -39 -47 -17 0 8 6 15 14 15 16 0 66 55
66 73 0 6 -16 -5 -36 -26 -20 -20 -39 -37 -43 -37 -3 0 -6 22 -6 48 0 38 -6
57 -28 85 -33 44 -93 77 -139 77 -59 0 -62 -12 -15 -62 42 -45 74 -121 69
-163 -17 -145 -140 -234 -324 -235 -45 0 -78 -4 -78 -10 0 -5 23 -10 51 -10
45 0 50 -2 39 -15 -7 -8 -23 -15 -36 -15 -30 0 -32 -20 -1 -20 15 -1 31 -14
48 -42 31 -49 26 -78 -15 -92 -41 -15 -78 3 -99 49 -11 22 -40 63 -67 90 -71
74 -77 91 -48 124 13 14 30 38 37 53 12 23 11 30 -8 57 -12 17 -35 38 -52 48
-42 25 -82 90 -85 138 -3 65 -4 66 -11 62 -5 -3 -7 -36 -6 -74 2 -100 2 -103
13 -103 5 0 7 7 4 15 -10 26 12 16 24 -10 7 -14 32 -39 57 -57 55 -39 59 -67
14 -107 -21 -19 -32 -41 -36 -68 -4 -34 -2 -41 21 -56 31 -20 35 -9 6 16 -11
9 -20 25 -20 34 1 16 2 16 12 -2 6 -11 24 -36 39 -56 16 -20 26 -39 24 -43 -3
-3 -2 -4 1 -1 8 5 74 -79 74 -94 0 -6 5 -11 10 -11 16 0 12 -22 -6 -35 -23
-17 -10 -55 19 -54 30 1 75 -7 124 -21 23 -7 49 -10 59 -6 16 6 15 8 -4 27
-12 11 -22 27 -22 37 1 14 4 13 19 -5 20 -24 74 -32 86 -13 3 5 2 10 -4 10
-16 0 -91 77 -91 94 0 9 -11 23 -25 32 -13 9 -31 29 -39 45 -13 26 -12 29 10
44 27 18 50 19 60 4 4 -7 21 -9 43 -6 27 5 42 1 61 -14 24 -20 24 -21 5 -35
-10 -8 -22 -14 -27 -14 -4 0 -8 -7 -8 -17 0 -9 3 -14 6 -10 9 8 93 -26 153
-63 53 -33 97 -38 48 -6 -15 10 -27 25 -27 32 0 18 17 18 27 -1 5 -8 24 -17
43 -20 35 -6 35 -6 13 11 -13 9 -23 24 -23 34 0 14 7 11 33 -15 49 -49 125
-63 220 -39 39 9 101 17 139 16 48 -1 72 3 83 14 14 14 19 11 16 -9 0 -4 2 -6
6 -5 19 5 54 -15 49 -27 -3 -8 3 -19 11 -27 15 -11 16 -11 10 5 -5 14 -1 17
26 17 36 0 77 30 77 56 0 8 5 12 10 9 29 -18 -27 -89 -69 -88 -9 0 -21 -3 -27
-8 -18 -14 -53 2 -63 30 -8 23 -9 24 -10 4 -1 -12 4 -25 9 -28 6 -3 10 -15 10
-27 0 -17 4 -19 28 -13 59 16 93 15 134 -3 65 -30 112 -10 52 23 -19 10 -34
22 -34 27 0 13 27 9 40 -7 16 -19 54 -19 69 -1 9 11 3 18 -36 37 -26 12 -67
42 -91 65 l-44 44 29 24 c35 31 39 32 46 4 l6 -22 24 22 c15 14 30 20 41 16 9
-3 22 -1 30 5 10 8 22 7 49 -4 29 -12 41 -13 62 -3 l26 12 -33 14 c-18 7 -38
15 -45 16 -7 1 -15 5 -18 9 -3 4 -2 5 2 2 3 -3 12 0 20 7 10 8 17 8 25 0 17
-17 73 -15 88 3 11 13 8 15 -18 15 -17 0 -34 5 -37 11 -4 5 -18 15 -33 20 -19
7 -22 13 -14 21 17 17 15 35 -4 42 -13 5 -15 2 -11 -14 6 -25 -38 -64 -65 -57
-10 3 -16 1 -12 -4 5 -9 -43 -34 -58 -31 -5 1 -8 -4 -8 -10 -1 -11 -71 -63
-101 -76 -15 -6 -50 77 -41 96 5 9 7 23 5 30 -4 10 9 12 54 10 32 -2 69 1 82
6 16 6 21 5 17 -3 -4 -6 0 -11 9 -11 9 0 14 4 11 9 -9 14 20 21 33 8 8 -8 11
-8 11 1 0 7 -5 12 -11 12 -5 0 -7 5 -4 10 3 6 15 10 25 10 10 0 26 8 35 17 13
12 21 14 34 6 9 -5 48 -11 86 -12 39 -1 74 -7 79 -12 6 -5 17 -9 25 -9 9 0 28
-6 43 -14 17 -9 28 -11 30 -4 2 6 13 8 25 4 21 -7 22 -13 22 -152 1 -85 6
-154 12 -166 9 -16 8 -19 -3 -15 -7 2 -12 10 -10 17 2 7 -3 10 -11 7 -10 -4
-13 2 -10 21 4 24 3 25 -9 10 -13 -15 -15 -15 -26 0 -11 15 -12 13 -6 -8 l6
-25 -21 23 c-12 12 -26 22 -32 22 -6 0 -3 -7 5 -16 9 -8 13 -20 10 -26 -4 -6
-1 -14 6 -18 8 -5 0 -8 -21 -7 -19 1 -33 -3 -32 -9 1 -5 -14 -19 -33 -29 -21
-11 -33 -24 -30 -32 5 -11 -143 -13 -842 -14 -998 -1 -886 -2 -890 11 -5 15
-22 12 -22 -4 0 -8 9 -18 20 -21 11 -3 532 -4 1157 -2 626 2 1172 1 1213 -3
43 -4 80 -3 87 3 7 5 25 6 40 2 42 -10 209 -16 230 -7 15 5 18 13 12 32 -5 22
-7 23 -14 7 -7 -17 -8 -17 -20 0 -11 15 -10 19 9 28 20 10 21 19 24 163 1 91
-1 152 -7 152 -5 0 -12 8 -15 18 -2 9 -4 5 -3 -10 2 -24 -26 -68 -44 -68 -4 0
-10 8 -12 18 -2 9 -3 5 -1 -10 2 -15 -5 -36 -16 -50 l-18 -23 -7 27 c-7 26
-55 80 -55 61 0 -5 9 -18 19 -27 23 -21 37 -84 22 -99 -8 -8 -11 -5 -12 8 -1
43 -10 67 -34 93 -14 15 -25 30 -25 34 0 5 -5 8 -11 8 -18 0 6 -82 48 -163 11
-21 12 -32 4 -40 -7 -7 -12 -5 -17 9 -4 10 -18 31 -32 46 -21 23 -23 28 -9 28
9 0 17 5 17 10 0 11 -11 13 -34 4 -21 -8 -20 -52 1 -76 15 -17 5 -27 -11 -10
-10 9 -56 10 -50 1 2 -4 -2 -10 -8 -12 -10 -4 -10 -6 0 -6 7 -1 10 -5 7 -11
-3 -5 3 -15 15 -22 11 -7 20 -16 20 -21 0 -4 9 -18 21 -30 15 -17 19 -18 14
-4 -5 12 -2 17 9 17 9 0 17 -4 17 -10 1 -5 2 -14 3 -19 2 -17 16 -25 16 -10 0
24 -24 50 -47 52 -12 0 -21 4 -21 7 2 22 -4 31 -17 26 -9 -3 -15 0 -15 8 0 8
9 16 20 19 15 4 34 -7 67 -40 42 -40 45 -47 37 -71 -17 -47 -78 -27 -158 50
-22 21 -48 38 -57 38 -9 0 -22 7 -29 15 -11 13 -8 15 22 15 19 0 39 -5 46 -12
8 -8 12 -8 12 -1 0 6 -7 13 -15 17 -29 11 -14 26 26 26 24 0 38 4 34 10 -10
16 -72 12 -78 -4 -3 -8 -22 -18 -41 -21 -19 -4 -34 -12 -33 -19 2 -10 -3 -12
-45 -15 -10 0 -18 -5 -18 -10 0 -4 27 -8 59 -7 59 0 60 0 110 -53 28 -29 51
-55 51 -57 0 -11 -67 11 -81 26 -18 20 -66 39 -55 21 4 -6 13 -11 20 -11 8 0
19 -7 26 -15 16 -19 10 -19 -26 0 -36 19 -68 20 -58 3 6 -10 5 -10 -7 -1 -9 7
-26 10 -40 7 -51 -12 -213 -13 -228 -1 -11 9 -13 9 -8 0 5 -8 -13 -11 -65 -10
-40 1 -89 -2 -108 -6 -34 -8 -34 -8 14 23 48 31 50 32 140 25 88 -6 93 -5 151
24 33 17 68 31 78 31 9 0 17 4 17 10 0 8 74 47 124 64 10 4 16 9 13 12 -3 4
-20 2 -36 -4 l-31 -11 -1 42 c0 32 -2 37 -9 22 -4 -11 -6 -31 -3 -45 4 -17 2
-22 -5 -15 -6 6 -13 24 -15 40 -2 17 -3 9 -1 -17 2 -26 -1 -50 -6 -53 -6 -3
-33 -12 -62 -20 -50 -13 -53 -12 -68 8 -8 12 -15 25 -16 30 -1 4 -3 10 -4 15
-2 4 -4 12 -5 17 -1 6 -5 21 -9 35 -13 48 -13 130 0 141 8 7 14 7 19 -1 8 -13
92 -13 100 0 3 6 18 10 32 10 32 0 93 45 93 69 0 31 12 31 43 1 37 -37 68 -43
186 -38 l93 4 23 59 c14 32 22 61 19 64 -8 8 -23 -20 -36 -66 -11 -40 -28 -59
-28 -30 0 16 22 76 38 104 19 34 15 97 -9 127 -11 14 -24 26 -28 26 -13 0 -8
-29 6 -34 22 -9 14 -36 -13 -47 -32 -11 -40 -7 -19 11 8 7 15 16 15 20 0 5
-11 -1 -24 -13 -30 -26 -16 -39 31 -31 l32 6 -11 -38 c-5 -22 -14 -44 -19 -50
-5 -6 -5 -14 -1 -19 4 -4 -3 -3 -15 4 -36 19 -40 35 -7 27 16 -4 26 -4 22 0
-4 4 -3 13 3 20 8 10 3 12 -25 7 -24 -4 -36 -2 -36 6 0 6 5 11 10 11 6 0 10 5
10 10 0 6 -11 10 -25 10 -29 0 -35 29 -10 50 8 7 15 20 15 29 0 10 -8 3 -21
-16 -12 -18 -27 -33 -35 -33 -17 0 -18 12 -2 28 9 9 9 12 1 12 -7 0 -15 -5
-19 -11 -16 -26 -29 19 -35 119 -3 59 -9 114 -12 122 -6 12 3 15 52 15 33 1
57 -3 55 -7 -3 -4 0 -8 5 -8 6 0 11 6 11 14 0 9 8 12 24 9 28 -6 86 25 86 44
0 7 5 13 10 13 6 0 10 5 10 10 0 18 -28 10 -33 -10 -5 -20 -52 -48 -63 -37 -4
3 1 13 9 21 17 17 29 53 46 138 14 64 46 97 80 79 18 -10 19 -35 20 -566 1
-306 -1 -582 -5 -613 l-6 -58 -1052 0 c-578 1 -1205 -1 -1394 -4 -189 -3 -350
-1 -358 3 -10 6 -12 4 -8 -8 3 -8 3 -15 0 -15 -4 0 -11 12 -17 27 -7 19 -6 29
2 37 9 8 10 8 5 -1 -9 -16 11 -26 21 -11 10 17 11 30 1 50 -4 9 -9 37 -10 62
0 25 -5 46 -10 46 -4 0 -8 7 -8 16 0 10 6 14 15 10 8 -3 15 -1 15 4 0 6 -7 10
-16 10 -12 0 -14 5 -9 18 4 9 10 38 12 63 3 37 0 48 -13 53 -9 4 -18 5 -20 4
-1 -2 -4 -62 -6 -135 -3 -130 -3 -132 19 -138 13 -3 23 -13 23 -23 0 -14 -2
-14 -9 -3 -5 8 -16 11 -25 8 -12 -5 -16 -21 -16 -67 0 -59 0 -60 25 -54 30 7
13 7 310 5 519 -4 688 -1 704 12 12 9 13 9 7 0 -5 -10 10 -13 66 -15 40 0 80
-1 88 0 8 1 93 2 188 2 126 1 172 4 172 13 0 9 2 9 8 0 6 -10 112 -13 447 -14
284 -1 444 -5 453 -11 8 -7 12 -7 12 1 0 9 57 11 210 10 116 -1 212 0 215 2 5
6 6 22 5 354 0 154 1 495 4 758 l4 477 -261 2 c-292 3 -935 0 -1667 -7 -267
-2 -498 -4 -515 -3 -42 1 -73 0 -125 -5 -25 -2 -52 -1 -60 4 -16 7 -259 17
-266 10z m51 -20 c3 -5 1 -12 -5 -16 -5 -3 -10 1 -10 9 0 18 6 21 15 7z m2072
3 c-3 -3 -12 -4 -19 -1 -8 3 -5 6 6 6 11 1 17 -2 13 -5z m-1987 -13 c0 -4 -11
-6 -25 -3 -14 2 -25 6 -25 8 0 2 11 4 25 4 14 0 25 -4 25 -9z m2738 -14 c2
-11 -3 -17 -13 -17 -15 0 -16 2 -4 17 8 10 9 14 2 10 -6 -4 -15 -2 -18 4 -5 7
0 10 11 7 10 -2 20 -11 22 -21z m2 -43 c0 -8 -5 -12 -10 -9 -6 4 -8 11 -5 16
9 14 15 11 15 -7z m-785 -24 c-7 -24 2 -43 17 -34 6 4 5 10 -3 15 -12 8 -11
11 1 19 11 7 17 5 24 -9 9 -21 57 -23 64 -2 3 8 -3 8 -22 1 -17 -6 -27 -6 -32
1 -8 13 -5 15 32 22 28 5 32 3 48 -34 10 -22 16 -49 13 -60 -3 -10 -1 -17 4
-13 12 7 11 -37 0 -56 -8 -12 -14 -10 -36 12 -24 24 -107 70 -148 82 -15 5
-16 9 -5 28 12 20 37 47 46 48 2 0 1 -9 -3 -20z m660 2 c-16 -11 -35 -25 -41
-33 -20 -24 -66 -111 -61 -115 5 -5 57 72 57 84 0 23 94 82 130 82 6 0 10 -30
10 -75 0 -58 -4 -77 -15 -81 -8 -4 -15 -12 -15 -20 0 -8 -3 -14 -7 -15 -11 -1
-26 -4 -106 -25 -53 -13 -72 -24 -89 -46 -11 -16 -45 -40 -77 -54 -31 -14 -68
-37 -83 -51 -15 -15 -30 -24 -33 -21 -9 9 27 134 45 158 14 19 20 21 38 11 36
-19 99 -14 115 10 8 11 13 28 10 38 -2 9 3 23 11 30 24 20 21 50 -4 44 -17 -5
-18 -8 -8 -21 11 -13 10 -15 -5 -9 -10 4 -16 3 -13 -2 3 -4 -1 -17 -9 -27 -8
-10 -14 -26 -14 -34 0 -10 2 -11 6 -2 2 6 12 12 20 12 13 0 13 -3 3 -15 -21
-25 -90 -17 -90 11 0 8 10 14 22 14 17 0 19 3 10 12 -19 19 -14 28 14 28 14 0
23 4 19 10 -3 5 -13 7 -23 4 -9 -2 -3 2 13 10 l30 15 -27 1 c-15 0 -30 -5 -33
-10 -7 -12 -25 -4 -25 11 0 14 80 49 113 49 16 0 27 -5 27 -14 0 -8 -9 -12
-25 -11 -14 2 -37 0 -53 -5 -23 -7 -20 -8 22 -9 39 -1 53 4 71 23 13 14 18 27
12 29 -25 8 7 27 46 27 l42 0 -30 -18z m-90 -6 c18 -13 18 -14 -7 -9 -34 6
-96 -13 -127 -41 -13 -11 -21 -15 -17 -8 4 6 3 12 -3 12 -6 0 -8 7 -4 15 3 9
10 14 16 12 6 -2 32 5 57 14 56 22 61 22 85 5z m-273 -42 c-3 -24 -7 -32 -13
-23 -4 7 -6 16 -5 19 2 3 6 13 9 23 10 27 13 20 9 -19z m-2362 -48 c0 -3 -4
-8 -10 -11 -5 -3 -10 -1 -10 4 0 6 5 11 10 11 6 0 10 -2 10 -4z m2498 -4 c7
-5 10 -16 6 -25 -7 -18 -24 -23 -24 -7 0 6 -9 10 -20 10 -22 0 -27 15 -7 23
18 8 31 8 45 -1z m-33 -41 c3 -6 -3 -18 -12 -28 -45 -46 -56 -67 -72 -148 -11
-51 -27 -98 -40 -113 -22 -29 -54 -82 -48 -82 2 0 21 24 43 54 35 49 107 104
127 98 4 -1 7 5 7 14 0 10 5 14 16 10 8 -3 12 -2 9 4 -6 10 21 24 71 36 21 6
25 3 22 -12 -2 -10 -16 -21 -35 -26 -18 -5 -52 -22 -75 -38 -67 -45 -184 -161
-206 -203 -16 -30 -22 -34 -31 -23 -9 11 -8 15 4 20 11 4 14 12 10 27 -5 14
-3 19 3 15 15 -9 25 11 29 63 5 69 11 80 30 56 10 -13 14 -14 10 -4 -4 13 26
112 62 203 15 37 50 86 61 86 5 0 11 -4 15 -9z m-2465 -15 c0 -3 -4 -8 -10
-11 -5 -3 -10 -1 -10 4 0 6 5 11 10 11 6 0 10 -2 10 -4z m2834 -21 c-4 -8 -8
-15 -10 -15 -2 0 -4 7 -4 15 0 8 4 15 10 15 5 0 7 -7 4 -15z m-344 -5 c0 -5
-2 -10 -4 -10 -3 0 -8 5 -11 10 -3 6 -1 10 4 10 6 0 11 -4 11 -10z m240 -28
c0 -5 -3 -12 -7 -15 -12 -13 -43 -111 -43 -137 0 -30 -51 -85 -72 -77 -7 2
-21 -2 -31 -11 -26 -23 -28 -11 -10 51 18 60 20 62 41 49 10 -7 10 -15 2 -37
-6 -15 -8 -30 -5 -33 8 -8 13 1 19 30 2 14 12 38 21 52 11 17 15 35 10 55 -5
24 -1 35 19 56 24 24 56 34 56 17z m-82 -24 c-6 -17 -36 -34 -45 -24 -4 4 1
14 11 22 24 17 39 18 34 2z m-13 -73 c0 -20 -6 -31 -17 -33 -15 -3 -18 4 -18
33 0 29 3 36 18 33 11 -2 17 -13 17 -33z m-75 -61 c0 -8 -4 -12 -10 -9 -5 3
-10 4 -10 1 0 -2 -3 -13 -6 -23 -5 -15 -4 -16 6 -3 10 13 11 13 7 0 -2 -8 -10
-14 -16 -12 -6 1 -17 -9 -23 -23 -12 -27 -23 -31 -34 -14 -3 6 -15 9 -25 6
-26 -7 -32 7 -11 25 21 19 104 68 115 68 4 0 7 -7 7 -16z m-740 -90 c0 -8 -4
-12 -10 -9 -5 3 -10 10 -10 16 0 5 5 9 10 9 6 0 10 -7 10 -16z m657 -30 c11
-18 18 -53 20 -116 3 -70 8 -100 25 -129 12 -21 25 -36 30 -33 10 6 84 -66 80
-78 -1 -5 7 -17 18 -28 13 -13 19 -31 18 -50 -2 -26 -6 -30 -30 -30 -15 0 -28
6 -29 13 0 9 -2 9 -6 0 -8 -21 -36 -16 -29 5 5 14 4 14 -9 -2 -22 -29 -72 -11
-106 39 -31 45 -27 83 10 97 18 6 24 4 28 -11 6 -24 32 -16 30 9 -1 10 -8 21
-17 23 -8 2 -23 28 -33 59 -19 62 -21 71 -9 64 5 -3 9 1 9 9 0 8 -3 15 -6 15
-3 0 -6 19 -7 43 -1 52 -24 117 -41 117 -16 0 -17 -17 -1 -22 7 -3 -7 -15 -30
-28 -40 -22 -112 -112 -112 -139 0 -6 -4 -11 -10 -11 -31 0 16 114 67 162 55
53 114 62 140 22z m-647 -4 c-19 -13 -30 -13 -30 0 0 6 10 10 23 10 18 0 19
-2 7 -10z m615 -151 c-4 -34 0 -59 14 -92 l20 -46 -22 -3 c-22 -4 -95 23 -106
39 -3 5 -18 16 -33 26 -16 10 -28 22 -28 27 0 19 62 100 103 135 l42 36 8 -38
c5 -21 6 -59 2 -84z m-817 92 c10 -6 10 -11 -3 -21 -24 -20 -54 -84 -56 -117
-1 -15 4 -41 10 -58 14 -34 69 -95 87 -95 6 0 17 -7 24 -15 7 -8 22 -15 34
-15 11 0 35 -12 51 -26 l30 -25 -60 7 c-95 11 -98 11 -140 33 -150 75 -171
244 -40 318 45 26 45 26 63 14z m-905 -92 c47 -31 75 -83 63 -115 -3 -8 -2
-13 3 -9 5 3 8 -14 7 -37 -1 -33 -5 -43 -18 -42 -13 1 -14 -3 -6 -27 8 -22 7
-35 -5 -52 -27 -41 -78 -84 -120 -102 -23 -9 -50 -21 -59 -26 -23 -12 -98 -23
-98 -15 0 8 61 31 73 28 4 -1 7 2 7 7 0 5 12 14 28 20 32 13 77 67 98 116 18
44 18 136 -1 181 -8 19 -14 37 -14 41 1 3 -6 10 -15 15 -9 5 -16 15 -16 23 0
7 -8 16 -17 18 -10 3 -4 5 13 6 19 1 48 -11 77 -30z m1467 -19 c60 -12 80 -20
80 -34 0 -15 -118 -13 -147 2 -18 10 -21 19 -14 51 1 2 9 0 19 -4 9 -3 37 -10
62 -15z m223 -138 c20 -22 15 -61 -12 -83 -10 -8 -26 -29 -35 -46 -16 -32 -47
-49 -79 -44 -10 1 -27 -5 -37 -14 -20 -18 -60 -16 -84 4 -21 18 -20 33 4 64
11 14 20 32 20 41 0 21 86 76 119 76 15 0 33 5 41 10 23 15 45 12 63 -8z
m-498 -22 c18 -20 18 -20 -6 -18 -16 1 -26 9 -26 20 -2 24 10 23 32 -2z m126
-65 c28 -22 55 -35 74 -35 27 -1 28 -2 12 -14 -18 -14 -63 -10 -73 5 -3 5 -10
9 -16 9 -6 0 -3 -9 7 -20 11 -12 31 -20 52 -20 18 0 33 -5 33 -11 0 -6 -8 -8
-17 -5 -10 2 -32 7 -50 11 -29 6 -49 28 -39 44 3 4 -8 22 -24 39 -39 43 -14
41 41 -3z m-465 -10 c18 -13 17 -14 -18 -15 -37 0 -51 13 -25 23 19 8 22 8 43
-8z m520 -95 c31 0 35 -2 24 -15 -7 -8 -21 -15 -32 -15 -30 0 -78 29 -78 46 0
15 2 15 25 0 13 -9 41 -16 61 -16z m-438 -33 c-29 -28 -64 -47 -88 -47 -21 0
-18 5 25 30 53 32 88 41 63 17z m435 -12 c15 -3 27 -11 27 -19 0 -10 -11 -11
-43 -6 -50 7 -67 16 -67 35 0 10 7 11 28 4 15 -4 39 -11 55 -14z m684 -162
l-2 -127 -27 -7 c-37 -10 -92 3 -96 23 -2 12 9 20 40 29 54 15 84 39 66 51
-18 11 -66 10 -89 -2 -15 -8 -19 -7 -19 4 0 19 19 31 45 29 16 -1 16 -1 3 3
-22 7 -23 18 -3 34 8 7 15 17 15 22 0 16 52 78 61 73 4 -3 7 -63 6 -132z
m-657 110 c3 -3 -3 -11 -13 -18 -17 -12 -17 -14 -1 -23 10 -5 14 -14 9 -22
-13 -21 -105 5 -105 31 0 4 15 3 32 -2 40 -11 38 -11 38 -1 0 4 -14 12 -32 17
-17 6 -34 16 -36 23 -3 10 8 11 50 6 29 -4 55 -9 58 -11z m510 -101 c0 -23
-17 -4 -23 25 -5 26 -4 26 9 8 8 -10 14 -25 14 -33z m-1935 18 c38 -5 39 -6
17 -18 -18 -10 -27 -10 -49 0 -15 7 -29 19 -31 27 -3 10 0 11 9 5 8 -4 32 -11
54 -14z m1406 0 c19 0 29 -5 29 -15 0 -16 -8 -18 -55 -15 -36 2 -65 17 -65 32
0 6 12 8 31 4 17 -3 44 -6 60 -6z m-1346 -10 c-3 -5 -1 -10 6 -10 7 0 10 -3 6
-6 -9 -9 -28 6 -22 17 4 5 8 9 11 9 3 0 2 -4 -1 -10z m-340 -97 c-31 -28 -95
-32 -95 -7 0 12 7 14 28 9 32 -7 81 24 83 53 1 9 4 6 6 -8 4 -18 -2 -31 -22
-47z m1736 41 c4 -11 8 -24 8 -31 1 -16 -70 -26 -103 -14 -40 16 -22 31 28 25
24 -4 46 -2 49 3 4 6 -13 10 -40 11 -26 0 -52 7 -60 15 -13 13 -7 14 48 12 51
-2 64 -6 70 -21z m437 -14 c10 -27 9 -28 -6 -19 -10 6 -18 20 -18 30 0 28 13
23 24 -11z m144 -2 c-6 -6 -15 -8 -19 -4 -4 4 -1 11 7 16 19 12 27 3 12 -12z
m-715 -25 c-3 -10 -5 -4 -5 12 0 17 2 24 5 18 2 -7 2 -21 0 -30z m669 24 c-11
-7 -28 -20 -38 -30 -11 -10 -22 -16 -25 -14 -10 11 18 46 39 50 39 7 44 6 24
-6z m-2257 -54 c-11 -13 -11 -17 -1 -20 6 -3 12 -9 12 -14 0 -5 -9 -4 -20 3
-18 11 -18 14 -3 30 20 23 30 24 12 1z m1041 7 c0 -5 -4 -10 -10 -10 -5 0 -10
5 -10 10 0 6 5 10 10 10 6 0 10 -4 10 -10z m582 -2 c4 -10 17 -10 63 -1 67 14
86 10 28 -6 -57 -16 -113 -14 -113 4 0 18 17 20 22 3z m-148 -29 c-3 -5 -11
-9 -17 -9 -7 0 -29 -9 -50 -20 -20 -11 -37 -16 -37 -12 0 5 15 17 34 27 19 11
33 22 31 26 -3 3 7 4 20 1 14 -2 22 -8 19 -13z m773 -31 c19 -17 23 -19 17 -5
-3 10 -1 17 5 17 6 0 11 -7 11 -16 0 -10 6 -14 14 -11 8 3 17 -1 20 -9 6 -14
-15 -20 -28 -7 -4 4 -24 6 -45 4 -36 -2 -38 -1 -34 23 6 32 10 32 40 4z
m-1974 -95 c-7 -2 -19 -2 -25 0 -7 3 -2 5 12 5 14 0 19 -2 13 -5z m442 -3 c3
-5 1 -10 -4 -10 -6 0 -11 5 -11 10 0 6 2 10 4 10 3 0 8 -4 11 -10z m292 4 c-3
-3 -12 -4 -19 -1 -8 3 -5 6 6 6 11 1 17 -2 13 -5z m243 -4 c0 -5 -2 -10 -4
-10 -3 0 -8 5 -11 10 -3 6 -1 10 4 10 6 0 11 -4 11 -10z m404 2 c2 -4 -7 -8
-22 -9 -24 -2 -24 -1 -7 7 11 5 21 9 22 9 1 1 4 -3 7 -7z m241 -2 c-3 -5 -11
-10 -16 -10 -6 0 -7 5 -4 10 3 6 11 10 16 10 6 0 7 -4 4 -10z m119 -2 c-3 -4
-9 -8 -15 -8 -5 0 -9 4 -9 8 0 5 7 9 15 9 8 0 12 -4 9 -9z m-441 -5 c-7 -2
-19 -2 -25 0 -7 3 -2 5 12 5 14 0 19 -2 13 -5z"/>
<path d="M2245 1441 c-3 -6 -5 -11 -3 -12 27 -6 38 -5 35 4 -5 15 -24 20 -32
8z"/>
<path d="M2871 1488 c-1 -27 4 -48 9 -48 12 0 12 47 0 75 -6 15 -9 8 -9 -27z"/>
<path d="M2810 1460 c0 -5 5 -10 10 -10 6 0 10 5 10 10 0 6 -4 10 -10 10 -5 0
-10 -4 -10 -10z"/>
<path d="M2875 1420 c-3 -5 -1 -10 4 -10 6 0 11 5 11 10 0 6 -2 10 -4 10 -3 0
-8 -4 -11 -10z"/>
<path d="M2778 1373 c7 -3 16 -2 19 1 4 3 -2 6 -13 5 -11 0 -14 -3 -6 -6z"/>
<path d="M2665 700 c-4 -6 -4 -14 -1 -17 3 -4 6 0 6 8 1 8 9 -2 20 -21 11 -19
19 -31 20 -26 0 5 7 3 15 -4 25 -21 17 -6 -19 34 -22 26 -36 34 -41 26z"/>
<path d="M2598 689 c-10 -5 -18 -18 -18 -27 0 -13 5 -12 20 8 11 14 20 20 20
13 0 -6 -4 -15 -10 -18 -12 -8 -13 -25 -1 -25 5 0 14 14 20 30 11 33 2 38 -31
19z"/>
<path d="M2639 652 c-3 -20 -2 -29 4 -23 5 5 7 19 5 32 -3 20 -5 19 -9 -9z"/>
<path d="M2660 632 c0 -12 3 -12 15 -2 8 7 15 13 15 15 0 1 -7 2 -15 2 -8 0
-15 -7 -15 -15z"/>
<path d="M2488 933 c7 -3 16 -2 19 1 4 3 -2 6 -13 5 -11 0 -14 -3 -6 -6z"/>
<path d="M2474 889 c-3 -6 -2 -15 3 -20 5 -5 9 -1 9 11 0 23 -2 24 -12 9z"/>
<path d="M2476 818 c3 -4 12 -8 20 -8 8 0 14 4 14 8 0 4 -9 8 -19 8 -11 0 -17
-4 -15 -8z"/>
<path d="M2278 843 c7 -3 16 -2 19 1 4 3 -2 6 -13 5 -11 0 -14 -3 -6 -6z"/>
<path d="M2460 725 c10 -12 9 -15 -5 -15 -22 0 -16 -34 8 -38 12 -2 17 3 17
17 0 12 5 21 11 21 6 0 4 7 -5 15 -8 8 -20 15 -27 15 -9 0 -8 -4 1 -15z"/>
<path d="M2313 679 c-7 -7 -13 -19 -13 -27 0 -8 -10 -30 -21 -49 -25 -39 -17
-54 24 -46 36 7 46 31 21 50 -15 11 -16 16 -6 22 8 4 12 20 10 35 -2 22 -5 25
-15 15z"/>
<path d="M2800 375 c-18 -21 -5 -31 15 -12 8 9 11 18 6 21 -5 3 -14 -1 -21 -9z"/>
<path d="M5 1610 c3 -5 8 -10 11 -10 2 0 4 5 4 10 0 6 -5 10 -11 10 -5 0 -7
-4 -4 -10z"/>
<path d="M138 1563 c0 -5 -2 -91 -4 -193 -1 -102 -4 -220 -6 -262 -1 -43 1
-78 5 -78 11 0 16 19 20 68 3 31 -1 45 -12 52 -13 7 -14 11 -3 21 6 7 12 24
12 39 0 36 51 119 117 191 74 79 148 117 225 114 70 -3 156 -28 199 -59 19
-13 52 -34 74 -45 22 -12 49 -28 60 -37 20 -15 20 -15 -5 -34 -14 -10 -22 -21
-19 -25 4 -3 20 5 36 19 28 24 43 25 43 4 0 -4 -15 -14 -32 -22 -26 -11 -28
-15 -12 -15 11 -1 29 7 40 17 16 15 31 18 78 14 l57 -5 -27 -28 c-15 -16 -25
-31 -22 -34 3 -3 19 10 36 29 17 19 46 39 67 45 34 9 36 9 29 -12 -3 -12 -13
-33 -21 -47 -11 -19 -7 -17 17 8 17 19 29 39 27 46 -3 7 10 20 30 29 l35 16
-5 -41 c-6 -45 0 -71 15 -62 7 4 7 9 0 13 -16 10 12 104 34 116 10 6 32 19 47
29 34 23 45 15 30 -24 -7 -18 -7 -30 -2 -30 14 0 29 45 23 68 -4 12 0 22 11
26 14 5 16 1 10 -25 -5 -22 -4 -29 4 -25 6 4 11 20 11 35 0 16 7 35 17 42 15
13 15 10 9 -26 -6 -30 -5 -37 4 -29 6 6 12 23 14 38 1 15 8 32 15 39 11 10 12
5 6 -23 -6 -28 -4 -32 5 -23 7 6 13 23 13 36 -1 14 7 28 16 31 9 3 22 9 29 12
9 4 11 -1 7 -19 -4 -15 -2 -28 6 -32 7 -5 10 -4 5 3 -3 6 -2 22 4 36 l10 27
-108 -4 c-86 -3 -115 -8 -147 -25 -22 -12 -75 -35 -117 -51 -99 -38 -198 -37
-280 3 -119 56 -169 70 -268 72 -52 1 -99 -1 -105 -6 -5 -4 -33 -15 -61 -24
-28 -9 -71 -29 -95 -45 -41 -26 -143 -118 -145 -131 -3 -17 -18 -39 -30 -44
-12 -4 -14 15 -14 114 l0 120 123 1 c67 0 145 4 172 9 35 5 -2 8 -127 9 -98 0
-179 -2 -180 -6z m1247 -29 c-16 -13 -51 -37 -77 -51 -27 -14 -48 -30 -48 -34
0 -4 -35 -27 -77 -50 -77 -43 -79 -43 -178 -44 -99 0 -101 0 -179 43 -43 24
-95 54 -115 67 -30 20 -140 69 -148 66 -11 -4 -35 0 -31 4 10 11 68 13 74 4 4
-6 11 -6 20 2 11 9 15 8 20 -5 3 -9 10 -16 15 -16 4 0 6 7 3 15 -5 13 0 13 42
0 27 -8 50 -15 52 -15 1 0 2 -15 3 -32 l1 -33 11 28 c10 26 37 38 37 17 0 -5
-4 -10 -9 -10 -5 0 -8 -11 -8 -25 0 -20 2 -23 13 -14 8 6 14 18 14 25 0 8 5
14 10 14 6 0 10 -4 10 -8 0 -10 60 -32 88 -32 12 0 22 -6 22 -12 0 -8 3 -9 8
-3 9 12 32 18 32 8 0 -11 74 -8 91 3 8 5 25 10 38 12 13 2 46 14 73 28 47 24
51 24 69 8 11 -10 19 -12 19 -6 0 7 -6 12 -12 12 -7 1 -2 10 11 21 13 11 31
17 41 14 9 -3 30 1 46 10 44 22 53 17 19 -11z"/>
<path d="M682 1521 c2 -7 7 -12 11 -12 12 1 9 15 -3 20 -7 2 -11 -2 -8 -8z"/>
<path d="M720 1500 c0 -5 5 -10 11 -10 5 0 7 5 4 10 -3 6 -8 10 -11 10 -2 0
-4 -4 -4 -10z"/>
<path d="M1220 1470 c0 -5 5 -10 10 -10 6 0 10 5 10 10 0 6 -4 10 -10 10 -5 0
-10 -4 -10 -10z"/>
<path d="M1190 1450 c0 -5 5 -10 10 -10 6 0 10 5 10 10 0 6 -4 10 -10 10 -5 0
-10 -4 -10 -10z"/>
<path d="M835 1440 c-3 -5 -1 -10 4 -10 6 0 11 5 11 10 0 6 -2 10 -4 10 -3 0
-8 -4 -11 -10z"/>
<path d="M1150 1430 c0 -5 7 -10 16 -10 8 0 12 5 9 10 -3 6 -10 10 -16 10 -5
0 -9 -4 -9 -10z"/>
<path d="M870 1420 c0 -5 5 -10 11 -10 5 0 7 5 4 10 -3 6 -8 10 -11 10 -2 0
-4 -4 -4 -10z"/>
<path d="M915 1411 c-3 -5 -1 -12 5 -16 5 -3 10 1 10 9 0 18 -6 21 -15 7z"/>
<path d="M955 1400 c4 -6 11 -8 16 -5 14 9 11 15 -7 15 -8 0 -12 -5 -9 -10z"/>
<path d="M1000 1400 c0 -5 5 -10 10 -10 6 0 10 5 10 10 0 6 -4 10 -10 10 -5 0
-10 -4 -10 -10z"/>
<path d="M741 1566 c7 -8 108 -10 115 -3 4 4 -21 7 -56 7 -35 0 -61 -2 -59 -4z"/>
<path d="M872 1565 c9 -9 238 -12 238 -4 0 5 -55 9 -122 9 -67 0 -119 -2 -116
-5z"/>
<path d="M1145 1560 c28 -12 45 -12 45 0 0 6 -15 10 -32 9 -28 0 -30 -2 -13
-9z"/>
<path d="M1230 1559 c0 -5 5 -7 10 -4 6 3 10 8 10 11 0 2 -4 4 -10 4 -5 0 -10
-5 -10 -11z"/>
<path d="M1467 1534 c-4 -4 -7 -17 -7 -28 1 -19 1 -20 11 -3 11 19 8 43 -4 31z"/>
<path d="M2005 1530 c-3 -5 -1 -10 4 -10 6 0 11 5 11 10 0 6 -2 10 -4 10 -3 0
-8 -4 -11 -10z"/>
<path d="M1670 1520 c0 -5 5 -10 11 -10 5 0 7 5 4 10 -3 6 -8 10 -11 10 -2 0
-4 -4 -4 -10z"/>
<path d="M1580 1495 c0 -14 2 -25 4 -25 2 0 6 11 8 25 3 14 1 25 -3 25 -5 0
-9 -11 -9 -25z"/>
<path d="M210 1491 c0 -6 4 -13 10 -16 6 -3 7 1 4 9 -7 18 -14 21 -14 7z"/>
<path d="M413 1488 c-13 -6 -23 -15 -23 -19 0 -9 47 8 65 23 13 12 -16 9 -42
-4z"/>
<path d="M480 1490 c-8 -5 -12 -11 -9 -14 7 -8 49 5 49 15 0 12 -21 11 -40 -1z"/>
<path d="M1810 1496 c0 -2 7 -7 16 -10 8 -3 12 -2 9 4 -6 10 -25 14 -25 6z"/>
<path d="M534 1475 c-16 -12 -16 -14 -3 -15 9 0 22 7 29 15 16 19 0 19 -26 0z"/>
<path d="M1605 1480 c-3 -5 -3 -15 1 -21 3 -6 0 -15 -7 -20 -8 -5 -9 -9 -4 -9
6 0 17 5 25 11 11 8 12 12 3 16 -7 2 -13 9 -13 14 0 6 5 7 12 3 7 -4 8 -3 4 4
-9 15 -13 15 -21 2z"/>
<path d="M1774 1482 c3 -6 -2 -15 -11 -21 -10 -6 -13 -11 -7 -11 20 0 37 27
23 36 -7 4 -9 3 -5 -4z"/>
<path d="M1531 1460 c-18 -15 -19 -20 -7 -20 9 0 16 5 16 10 0 6 7 10 15 10 8
0 15 5 15 10 0 15 -12 12 -39 -10z"/>
<path d="M1720 1468 c0 -4 4 -8 9 -8 6 0 12 4 15 8 3 5 -1 9 -9 9 -8 0 -15 -4
-15 -9z"/>
<path d="M1805 1470 c-3 -5 -1 -10 4 -10 6 0 11 5 11 10 0 6 -2 10 -4 10 -3 0
-8 -4 -11 -10z"/>
<path d="M575 1460 c-7 -12 12 -12 40 0 18 8 17 9 -7 9 -15 1 -30 -3 -33 -9z"/>
<path d="M1490 1460 c-9 -6 -10 -10 -3 -10 6 0 15 5 18 10 8 12 4 12 -15 0z"/>
<path d="M1651 1461 c-8 -5 -9 -11 -3 -15 5 -3 12 1 16 9 6 17 6 18 -13 6z"/>
<path d="M1433 1448 c-34 -11 -45 -28 -18 -28 8 0 15 5 15 10 0 6 9 10 20 10
11 0 20 5 20 10 0 6 -1 10 -2 9 -2 -1 -18 -6 -35 -11z"/>
<path d="M355 1440 c-17 -8 -17 -9 7 -7 15 1 24 5 22 9 -3 4 -6 8 -7 7 -1 0
-11 -4 -22 -9z"/>
<path d="M458 1443 c6 -2 18 -2 25 0 6 3 1 5 -13 5 -14 0 -19 -2 -12 -5z"/>
<path d="M620 1440 c-11 -7 -5 -8 20 -4 43 8 51 14 19 14 -13 0 -31 -5 -39
-10z"/>
<path d="M1933 1435 c0 -8 4 -15 9 -15 4 0 8 4 8 9 0 6 -4 12 -8 15 -5 3 -9
-1 -9 -9z"/>
<path d="M418 1433 c7 -3 16 -2 19 1 4 3 -2 6 -13 5 -11 0 -14 -3 -6 -6z"/>
<path d="M1902 1431 c-11 -7 -11 -9 2 -14 10 -4 16 -1 16 8 0 17 -1 17 -18 6z"/>
<path d="M2015 1430 c-3 -5 -1 -10 4 -10 6 0 11 5 11 10 0 6 -2 10 -4 10 -3 0
-8 -4 -11 -10z"/>
<path d="M541 1427 c2 -1 14 -10 26 -20 14 -12 23 -15 28 -7 4 6 1 9 -7 8 -7
-2 -12 2 -11 7 1 6 -8 12 -19 12 -11 1 -19 1 -17 0z"/>
<path d="M655 1420 c-7 -12 12 -12 40 0 18 8 17 9 -7 9 -15 1 -30 -3 -33 -9z"/>
<path d="M1270 1430 c-1 -3 -3 -12 -5 -21 -1 -9 -6 -26 -10 -38 -4 -12 -2 -21
4 -21 13 0 24 42 18 67 -3 10 -6 16 -7 13z"/>
<path d="M500 1410 c-12 -8 -10 -10 8 -10 13 0 20 4 17 10 -7 12 -6 12 -25 0z"/>
<path d="M306 1402 c-3 -5 1 -9 9 -9 8 0 12 4 9 9 -3 4 -7 8 -9 8 -2 0 -6 -4
-9 -8z"/>
<path d="M680 1400 c-12 -8 -12 -10 5 -9 11 0 29 4 40 9 18 8 18 9 -5 9 -14 0
-32 -4 -40 -9z"/>
<path d="M1350 1401 c0 -5 9 -7 20 -4 11 3 20 7 20 9 0 2 -9 4 -20 4 -11 0
-20 -4 -20 -9z"/>
<path d="M1407 1403 c-4 -3 -7 -15 -7 -25 0 -15 -8 -18 -44 -18 -25 0 -48 -4
-51 -10 -4 -6 6 -7 25 -4 16 4 30 3 30 -2 0 -5 14 -9 31 -10 17 -1 25 2 19 6
-8 5 -9 13 -4 21 7 12 14 49 9 49 -1 0 -5 -3 -8 -7z"/>
<path d="M1956 1394 c-11 -7 -18 -16 -15 -18 2 -2 13 2 23 10 11 7 18 16 15
18 -2 2 -13 -2 -23 -10z"/>
<path d="M2375 1400 c3 -5 11 -10 16 -10 6 0 7 5 4 10 -3 6 -11 10 -16 10 -6
0 -7 -4 -4 -10z"/>
<path d="M620 1385 c0 -9 6 -12 15 -9 8 4 15 7 15 9 0 2 -7 5 -15 9 -9 3 -15
0 -15 -9z"/>
<path d="M1220 1386 c0 -7 -3 -29 -6 -47 -5 -32 -5 -33 10 -15 18 22 22 76 6
76 -5 0 -10 -6 -10 -14z"/>
<path d="M2130 1385 c7 -8 16 -12 21 -9 5 3 9 0 9 -5 0 -6 4 -11 8 -11 5 0 9
7 9 15 0 8 -2 13 -5 11 -2 -3 -16 0 -30 5 -22 8 -23 8 -12 -6z"/>
<path d="M465 1380 c-4 -6 -9 -9 -13 -6 -4 2 -16 0 -27 -5 -14 -6 -6 -7 25 -4
25 2 46 4 48 4 2 1 0 6 -3 11 -8 13 -22 13 -30 0z"/>
<path d="M731 1383 c-16 -3 -20 -7 -12 -12 15 -10 61 -2 61 10 0 9 -8 10 -49
2z"/>
<path d="M2050 1375 c0 -8 2 -15 4 -15 2 0 6 7 10 15 3 8 1 15 -4 15 -6 0 -10
-7 -10 -15z"/>
<path d="M2406 1371 c-4 -7 -5 -15 -2 -18 9 -9 19 4 14 18 -4 11 -6 11 -12 0z"/>
<path d="M271 1359 c-16 -6 -21 -14 -17 -25 4 -9 1 -23 -6 -32 -12 -13 -11
-14 9 -2 16 11 19 17 11 27 -6 7 -6 13 -1 13 5 0 18 7 29 15 22 16 11 18 -25
4z"/>
<path d="M780 1355 c-16 -9 -19 -14 -9 -15 8 0 24 7 35 15 24 18 7 19 -26 0z"/>
<path d="M1995 1350 c-3 -5 -1 -10 4 -10 6 0 11 5 11 10 0 6 -2 10 -4 10 -3 0
-8 -4 -11 -10z"/>
<path d="M340 1340 c0 -5 5 -10 11 -10 5 0 7 5 4 10 -3 6 -8 10 -11 10 -2 0
-4 -4 -4 -10z"/>
<path d="M390 1326 c0 -17 -14 -36 -44 -60 -23 -20 -46 -36 -50 -36 -4 0 -12
-5 -19 -10 -57 -49 -76 -68 -86 -88 -17 -32 -15 -121 3 -164 18 -43 78 -95
119 -104 25 -5 34 -1 53 22 13 16 23 24 24 18 0 -6 -7 -17 -15 -24 -21 -18
-19 -25 8 -28 15 -1 33 9 48 25 l24 27 -32 -23 c-18 -12 -33 -19 -33 -16 0 17
62 58 105 70 17 4 25 9 19 12 -6 2 -34 -5 -63 -16 -63 -25 -68 -17 -6 10 51
23 59 32 17 20 -42 -13 -85 -36 -106 -60 -25 -27 -45 -27 -85 4 -52 37 -71 77
-71 144 0 51 4 64 33 99 36 46 81 72 124 72 36 0 69 22 88 60 17 34 19 50 5
50 -5 0 -10 -5 -10 -12 0 -18 -50 -78 -66 -78 -19 0 -18 5 11 36 25 27 34 74
15 74 -5 0 -10 -11 -10 -24z"/>
<path d="M565 1340 c-14 -5 -2 -9 35 -12 30 -3 56 -5 58 -3 8 7 -76 21 -93 15z"/>
<path d="M1137 1316 c-22 -50 -21 -54 4 -22 11 14 19 34 17 44 -3 12 -9 6 -21
-22z"/>
<path d="M1475 1338 c43 -25 60 -54 25 -43 -11 4 -20 2 -20 -4 0 -6 18 -11 40
-11 22 0 40 5 40 10 0 6 -5 10 -11 10 -8 0 -7 6 2 17 12 15 12 16 -8 11 -16
-4 -20 -2 -16 8 4 11 -5 14 -33 14 -35 -1 -37 -2 -19 -12z"/>
<path d="M2140 1345 c0 -7 30 -13 34 -7 3 4 -4 9 -15 9 -10 1 -19 0 -19 -2z"/>
<path d="M2226 1337 c3 -10 9 -15 12 -12 3 3 0 11 -7 18 -10 9 -11 8 -5 -6z"/>
<path d="M706 1332 c-2 -4 4 -9 15 -9 11 -1 17 2 14 8 -7 11 -22 12 -29 1z"/>
<path d="M1890 1336 c0 -2 11 -6 25 -8 13 -3 22 -1 19 3 -5 9 -44 13 -44 5z"/>
<path d="M2016 1332 c-3 -5 1 -9 9 -9 8 0 12 4 9 9 -3 4 -7 8 -9 8 -2 0 -6 -4
-9 -8z"/>
<path d="M506 1322 c-3 -5 1 -9 9 -9 8 0 12 4 9 9 -3 4 -7 8 -9 8 -2 0 -6 -4
-9 -8z"/>
<path d="M893 1311 c-30 -25 -29 -33 2 -19 14 6 25 17 25 25 0 16 0 16 -27 -6z"/>
<path d="M1027 1295 c-15 -19 -24 -35 -19 -35 10 0 62 53 62 63 0 16 -17 5
-43 -28z"/>
<path d="M552 1300 c-23 -10 -45 -26 -48 -35 -3 -8 -11 -12 -17 -8 -5 3 -7 1
-3 -5 3 -5 0 -12 -6 -15 -7 -2 -10 -8 -6 -12 4 -4 22 7 40 25 41 39 65 49 107
44 81 -9 146 -88 134 -162 -3 -20 -10 -38 -15 -40 -4 -2 -8 -10 -8 -17 0 -13
-59 -65 -73 -65 -4 0 -7 7 -7 15 0 8 5 15 11 15 14 0 30 18 56 63 12 20 18 37
12 37 -6 0 -8 4 -5 8 9 15 -33 72 -60 82 -36 14 -41 13 -64 -12 -16 -18 -20
-31 -15 -56 11 -62 -36 -84 -75 -35 -15 19 -20 36 -16 54 4 21 1 28 -14 32
-27 7 -36 -10 -39 -71 -2 -50 0 -55 35 -89 44 -41 91 -64 131 -62 21 1 23 3 8
6 -36 9 -41 23 -7 23 18 0 32 -4 32 -10 0 -5 7 -10 16 -10 47 0 124 86 124
138 0 73 -62 155 -127 167 -19 3 -40 8 -46 10 -7 3 -31 -4 -55 -15z m140 -120
c16 -22 17 -30 7 -60 -12 -36 -36 -70 -48 -68 -3 1 -19 -4 -34 -10 -16 -7 -37
-12 -49 -12 -29 0 -73 29 -92 60 -18 31 -22 95 -6 105 6 4 10 -8 10 -28 0 -69
68 -114 110 -75 18 17 20 27 15 59 -4 21 -4 43 0 49 12 20 67 7 87 -20z"/>
<path d="M662 1160 c0 -14 2 -19 5 -12 2 6 2 18 0 25 -3 6 -5 1 -5 -13z"/>
<path d="M650 1121 c0 -6 -12 -23 -26 -37 -14 -15 -20 -24 -13 -22 18 6 54 56
46 65 -4 3 -7 1 -7 -6z"/>
<path d="M935 1294 c-16 -13 -25 -24 -19 -24 15 0 61 37 54 43 -3 3 -18 -6
-35 -19z"/>
<path d="M1356 1311 c-3 -5 0 -14 8 -20 10 -9 17 -7 27 5 12 15 11 16 -10 9
-16 -5 -21 -4 -17 4 4 6 5 11 2 11 -3 0 -7 -4 -10 -9z"/>
<path d="M1415 1310 c-3 -5 -1 -10 4 -10 6 0 11 5 11 10 0 6 -2 10 -4 10 -3 0
-8 -4 -11 -10z"/>
<path d="M1660 1311 c0 -5 9 -11 21 -14 16 -4 18 -3 8 9 -13 16 -29 19 -29 5z"/>
<path d="M1910 1314 c0 -2 9 -8 20 -14 11 -6 20 -7 20 -2 0 6 -9 12 -20 15
-11 3 -20 3 -20 1z"/>
<path d="M2100 1312 c0 -4 9 -8 20 -8 11 0 20 4 20 8 0 4 -9 8 -20 8 -11 0
-20 -4 -20 -8z"/>
<path d="M2850 1304 c0 -8 -4 -13 -8 -10 -4 2 -9 -4 -9 -15 -1 -10 3 -19 8
-19 6 0 7 -5 3 -12 -4 -7 -3 -8 4 -4 7 4 12 16 12 27 0 10 4 19 10 19 5 0 7 7
4 15 -8 20 -24 19 -24 -1z"/>
<path d="M325 1300 c-3 -5 1 -10 10 -10 9 0 13 5 10 10 -3 6 -8 10 -10 10 -2
0 -7 -4 -10 -10z"/>
<path d="M730 1299 c0 -5 5 -7 10 -4 6 3 10 8 10 11 0 2 -4 4 -10 4 -5 0 -10
-5 -10 -11z"/>
<path d="M2193 1296 c-21 -12 -21 -12 -1 -25 12 -8 17 -8 13 -1 -4 6 -1 17 5
25 14 17 13 17 -17 1z"/>
<path d="M2231 1297 c-8 -10 -7 -14 2 -14 8 0 14 6 14 14 0 7 -1 13 -2 13 -2
0 -8 -6 -14 -13z"/>
<path d="M260 1280 c-11 -11 -20 -26 -19 -32 0 -7 5 -3 11 10 6 12 17 22 24
22 7 0 16 5 19 10 11 18 -14 11 -35 -10z"/>
<path d="M1249 1283 c-12 -16 -12 -17 1 -7 8 6 22 14 30 17 13 5 12 6 -1 6 -9
1 -23 -7 -30 -16z"/>
<path d="M1958 1278 c-19 -19 -24 -33 -9 -23 5 3 13 1 16 -5 5 -7 -10 -10 -44
-7 -29 2 -49 2 -46 -2 3 -3 26 -7 50 -8 42 -3 66 9 45 22 -8 5 -7 11 1 21 18
22 7 23 -13 2z"/>
<path d="M2040 1289 c0 -5 5 -7 10 -4 6 3 10 8 10 11 0 2 -4 4 -10 4 -5 0 -10
-5 -10 -11z"/>
<path d="M1440 1280 c-13 -8 -12 -10 3 -10 9 0 17 5 17 10 0 12 -1 12 -20 0z"/>
<path d="M2140 1275 c-11 -13 -10 -14 4 -9 9 3 16 10 16 15 0 13 -6 11 -20 -6z"/>
<path d="M1268 1266 c-23 -17 -23 -22 1 -22 12 0 17 5 13 15 -4 10 -1 12 8 6
9 -5 11 -4 6 3 -9 14 -7 14 -28 -2z"/>
<path d="M1530 1271 c-24 -4 -31 -9 -22 -14 7 -5 19 -6 27 -3 8 3 17 1 20 -4
4 -6 -8 -10 -27 -10 -25 0 -29 -3 -18 -10 8 -5 29 -10 45 -11 24 -1 25 -3 8
-6 -13 -2 -23 -9 -23 -15 0 -6 10 -8 23 -4 12 3 28 6 35 6 6 0 12 5 12 11 0 5
-5 7 -12 3 -8 -5 -9 -2 -5 9 4 11 1 17 -9 17 -11 0 -13 6 -9 20 3 11 3 19 -2
19 -4 -1 -24 -4 -43 -8z"/>
<path d="M556 1255 c-14 -11 -16 -15 -5 -15 11 -1 11 -3 -2 -13 -12 -9 -14
-16 -6 -29 8 -12 7 -24 -3 -42 -15 -29 -11 -39 14 -30 13 5 15 14 11 35 -7 33
20 89 45 90 10 0 9 3 -5 9 -27 12 -27 11 -49 -5z"/>
<path d="M838 1263 c6 -2 18 -2 25 0 6 3 1 5 -13 5 -14 0 -19 -2 -12 -5z"/>
<path d="M1405 1260 c-3 -5 -1 -10 4 -10 6 0 11 5 11 10 0 6 -2 10 -4 10 -3 0
-8 -4 -11 -10z"/>
<path d="M2223 1255 c0 -8 4 -15 9 -15 4 0 8 4 8 9 0 6 -4 12 -8 15 -5 3 -9
-1 -9 -9z"/>
<path d="M1080 1240 c-8 -15 -8 -18 3 -14 8 3 14 11 14 19 0 20 -4 19 -17 -5z"/>
<path d="M1145 1250 c-3 -5 1 -10 10 -10 9 0 13 5 10 10 -3 6 -8 10 -10 10 -2
0 -7 -4 -10 -10z"/>
<path d="M1304 1249 c-4 -8 58 0 65 7 3 3 -10 3 -28 2 -18 -1 -34 -5 -37 -9z"/>
<path d="M1434 1248 c-3 -4 -4 -8 -2 -9 26 -6 37 -5 41 5 5 13 -31 17 -39 4z"/>
<path d="M856 1235 c-3 -9 -12 -12 -23 -8 -13 4 -11 0 6 -15 13 -12 24 -22 25
-22 2 0 3 60 1 60 -2 0 -5 -7 -9 -15z"/>
<path d="M2008 1243 c7 -3 16 -2 19 1 4 3 -2 6 -13 5 -11 0 -14 -3 -6 -6z"/>
<path d="M2117 1243 c-13 -12 -7 -23 11 -22 10 0 12 3 4 6 -6 2 -10 9 -6 14 6
10 0 12 -9 2z"/>
<path d="M2857 1228 c-21 -33 -30 -68 -18 -68 6 0 11 6 11 13 0 6 7 25 15 41
19 36 12 47 -8 14z"/>
<path d="M940 1229 c0 -5 5 -7 10 -4 6 3 10 8 10 11 0 2 -4 4 -10 4 -5 0 -10
-5 -10 -11z"/>
<path d="M2260 1235 c0 -7 39 -12 49 -5 7 4 -1 7 -18 8 -17 0 -31 -1 -31 -3z"/>
<path d="M176 1221 c-3 -4 6 -6 19 -3 14 2 25 6 25 8 0 8 -39 4 -44 -5z"/>
<path d="M996 1214 c-30 -29 -19 -33 14 -4 13 11 18 20 12 20 -6 0 -18 -7 -26
-16z"/>
<path d="M1357 1224 c-13 -13 -8 -32 11 -39 14 -5 15 -4 5 6 -19 19 -16 29 8
29 11 0 18 -4 15 -8 -3 -5 4 -8 14 -7 23 2 36 11 18 13 -7 1 -24 4 -38 7 -14
4 -29 3 -33 -1z"/>
<path d="M1986 1218 c3 -4 17 -8 31 -8 15 0 23 3 20 7 -10 9 -56 10 -51 1z"/>
<path d="M1198 1213 c7 -3 16 -2 19 1 4 3 -2 6 -13 5 -11 0 -14 -3 -6 -6z"/>
<path d="M1880 1216 c0 -2 9 -6 20 -9 11 -3 20 -1 20 4 0 5 -9 9 -20 9 -11 0
-20 -2 -20 -4z"/>
<path d="M1486 1201 c-4 -7 -5 -15 -2 -18 9 -9 19 4 14 18 -4 11 -6 11 -12 0z"/>
<path d="M885 1190 c3 -5 8 -10 11 -10 2 0 4 5 4 10 0 6 -5 10 -11 10 -5 0 -7
-4 -4 -10z"/>
<path d="M1165 1186 c-60 -15 -83 -27 -111 -58 -22 -25 -56 -108 -53 -130 3
-24 -1 -38 -10 -38 -5 0 -7 8 -4 19 3 10 0 22 -6 25 -16 10 -14 -49 2 -63 8
-6 20 -29 27 -51 7 -22 17 -40 22 -40 4 0 8 -6 8 -13 0 -27 68 -79 117 -89 52
-12 124 -11 133 0 3 4 23 17 45 28 47 25 98 91 98 128 0 14 2 26 6 26 3 0 7
21 9 46 2 35 -4 60 -24 100 -15 30 -33 54 -40 54 -6 0 -14 6 -17 14 -6 15
-107 57 -135 55 -9 0 -39 -6 -67 -13z m155 -35 c48 -25 59 -34 85 -74 15 -24
16 -30 5 -37 -10 -6 -11 -12 -3 -22 20 -26 15 -106 -9 -149 -24 -43 -98 -99
-132 -100 -12 0 -32 -2 -45 -5 -57 -10 -132 32 -181 101 -13 18 -12 17 10 -2
32 -28 108 -62 139 -63 78 0 161 57 161 111 0 32 -16 69 -34 81 -20 14 -66 8
-107 -13 -38 -19 -42 -19 -65 -4 -32 21 -39 39 -28 77 10 35 55 65 109 74 41
6 122 -26 147 -59 9 -12 20 -18 24 -14 12 12 -36 55 -82 73 -87 33 -201 -1
-218 -64 -4 -12 -2 -40 4 -61 14 -55 56 -70 115 -41 60 29 90 26 105 -9 18
-44 2 -81 -48 -109 -39 -22 -62 -15 -24 7 9 6 12 11 4 11 -7 0 -20 -9 -29 -20
-10 -11 -28 -20 -42 -20 -34 0 -102 37 -129 71 -37 45 -44 136 -14 167 6 7 12
19 12 26 0 7 9 21 20 31 11 10 17 22 13 28 -4 6 0 8 10 4 8 -3 33 3 54 14 47
25 113 21 173 -10z"/>
<path d="M1230 1110 c0 -6 7 -13 15 -16 9 -4 14 -13 13 -21 -2 -9 7 -19 20
-24 16 -6 21 -5 16 2 -4 7 0 9 14 5 24 -8 37 7 19 22 -7 6 -24 13 -40 17 -15
4 -27 11 -27 16 0 5 -7 9 -15 9 -8 0 -15 -5 -15 -10z m60 -40 c0 -5 -5 -10
-11 -10 -5 0 -7 5 -4 10 3 6 8 10 11 10 2 0 4 -4 4 -10z m35 0 c3 -5 1 -10 -4
-10 -6 0 -11 5 -11 10 0 6 2 10 4 10 3 0 8 -4 11 -10z"/>
<path d="M1210 1020 c-13 -9 -13 -10 0 -9 8 0 24 4 35 9 20 9 20 9 0 9 -11 0
-27 -4 -35 -9z"/>
<path d="M1170 1000 c-9 -6 -10 -10 -3 -10 6 0 15 5 18 10 8 12 4 12 -15 0z"/>
<path d="M1286 919 c-6 -38 -9 -41 -34 -36 -15 2 -36 1 -47 -3 -14 -6 -15 -9
-5 -10 8 -1 31 -3 50 -5 39 -4 59 15 60 57 0 44 -17 41 -24 -3z"/>
<path d="M1210 930 c-9 -6 -10 -10 -3 -10 6 0 15 5 18 10 8 12 4 12 -15 0z"/>
<path d="M1240 906 c0 -9 5 -16 10 -16 6 0 10 4 10 9 0 6 -4 13 -10 16 -5 3
-10 -1 -10 -9z"/>
<path d="M1144 888 c-4 -7 -3 -8 4 -4 7 4 12 2 12 -3 0 -6 5 -11 10 -11 15 0
12 17 -5 23 -8 4 -17 1 -21 -5z"/>
<path d="M1170 849 c0 -5 9 -9 20 -9 11 0 20 2 20 4 0 2 -9 6 -20 9 -11 3 -20
1 -20 -4z"/>
<path d="M1595 1185 l-30 -15 38 5 c22 4 37 2 37 -5 0 -5 -7 -10 -15 -10 -8 0
-15 -4 -15 -9 0 -6 12 -6 30 0 31 11 41 29 15 29 -8 0 -15 5 -15 10 0 13 -9
12 -45 -5z"/>
<path d="M2060 1189 c-12 -9 -10 -10 8 -6 18 4 35 -4 68 -35 26 -24 44 -35 44
-26 0 19 -37 57 -67 69 -30 11 -34 11 -53 -2z"/>
<path d="M386 1181 c-4 -5 3 -7 14 -4 23 6 26 13 6 13 -8 0 -17 -4 -20 -9z"/>
<path d="M940 1175 c0 -8 -10 -11 -27 -8 -27 3 -28 3 -4 -7 17 -7 28 -7 37 1
7 6 18 8 23 5 5 -4 12 -2 15 3 3 5 -5 11 -19 13 -16 3 -25 1 -25 -7z"/>
<path d="M1068 1183 c-10 -2 -18 -9 -18 -14 0 -5 -6 -9 -13 -9 -7 0 -21 -13
-30 -30 -12 -20 -23 -27 -35 -24 -12 4 -13 3 -4 -3 10 -7 10 -16 2 -37 -12
-34 -13 -46 -1 -46 11 0 32 56 24 64 -3 3 18 28 46 56 29 27 51 49 49 49 -2
-1 -11 -3 -20 -6z"/>
<path d="M2259 1173 c-12 -16 -12 -17 2 -6 9 7 20 9 24 5 5 -4 5 -1 1 6 -9 16
-11 15 -27 -5z"/>
<path d="M2871 1174 c0 -11 3 -14 6 -6 3 7 2 16 -1 19 -3 4 -6 -2 -5 -13z"/>
<path d="M354 1172 c3 -5 0 -13 -6 -15 -9 -4 -10 -6 -1 -6 17 -1 25 16 12 25
-7 4 -9 3 -5 -4z"/>
<path d="M836 1172 c-2 -4 4 -8 15 -8 10 0 19 4 19 8 0 10 -27 10 -34 0z"/>
<path d="M303 1156 c0 -8 6 -12 14 -9 7 3 10 9 7 14 -8 14 -21 11 -21 -5z"/>
<path d="M1518 1163 c7 -3 16 -2 19 1 4 3 -2 6 -13 5 -11 0 -14 -3 -6 -6z"/>
<path d="M1955 1160 c3 -5 11 -10 16 -10 6 0 7 5 4 10 -3 6 -11 10 -16 10 -6
0 -7 -4 -4 -10z"/>
<path d="M2006 1163 c-12 -12 -6 -23 14 -23 10 0 24 -10 31 -21 9 -18 13 -19
20 -8 8 11 9 9 7 -6 -2 -15 4 -21 26 -25 37 -6 47 -30 13 -30 -36 0 -85 31
-92 57 -6 27 -27 31 -23 6 2 -14 -3 -17 -19 -15 -13 2 -23 -1 -23 -7 0 -6 10
-9 23 -7 25 4 57 -13 57 -31 0 -6 5 -13 12 -15 9 -3 9 -6 0 -12 -7 -4 -12 -2
-12 3 0 6 -7 11 -15 11 -9 0 -12 6 -9 15 5 11 0 15 -17 14 -13 0 -19 -3 -12
-5 7 -3 10 -11 7 -18 -3 -7 7 -18 20 -26 21 -11 28 -11 41 0 20 17 111 19 108
3 -2 -7 4 -10 12 -7 16 6 21 24 7 24 -5 0 -18 20 -30 44 -15 30 -32 48 -52 55
-17 5 -30 8 -30 5 0 -2 -13 2 -29 10 -16 9 -31 12 -35 9z"/>
<path d="M2310 1160 c-23 -7 -23 -8 -3 -9 12 -1 25 4 28 9 3 6 5 10 3 9 -2 -1
-14 -5 -28 -9z"/>
<path d="M380 1156 c0 -2 7 -6 15 -10 8 -3 15 -1 15 4 0 6 -7 10 -15 10 -8 0
-15 -2 -15 -4z"/>
<path d="M1410 1150 c-13 -8 -12 -10 3 -10 9 0 17 5 17 10 0 12 -1 12 -20 0z"/>
<path d="M1816 1134 c-3 -8 1 -14 9 -14 18 0 19 -12 3 -28 -9 -9 -16 -8 -32 6
-11 9 -16 11 -12 5 4 -7 3 -13 -2 -13 -5 0 -12 -11 -14 -25 -6 -29 11 -34 19
-6 3 14 13 19 30 18 20 -2 29 5 39 29 13 30 12 32 -11 36 -14 3 -26 0 -29 -8z"/>
<path d="M2868 1125 c-3 -14 -1 -28 3 -31 5 -3 9 9 9 25 0 38 -6 40 -12 6z"/>
<path d="M360 1130 c8 -5 20 -10 25 -10 6 0 3 5 -5 10 -8 5 -19 10 -25 10 -5
0 -3 -5 5 -10z"/>
<path d="M1467 1129 c7 -7 15 -10 18 -7 3 3 -2 9 -12 12 -14 6 -15 5 -6 -5z"/>
<path d="M903 1123 c-7 -2 -13 -9 -13 -15 0 -7 5 -7 13 1 8 6 17 8 20 4 4 -3
7 -1 7 5 0 13 -7 14 -27 5z"/>
<path d="M1516 1118 c3 -5 10 -6 15 -3 13 9 11 12 -6 12 -8 0 -12 -4 -9 -9z"/>
<path d="M1550 1126 c0 -2 7 -7 16 -10 8 -3 12 -2 9 4 -6 10 -25 14 -25 6z"/>
<path d="M2258 1123 c7 -3 16 -2 19 1 4 3 -2 6 -13 5 -11 0 -14 -3 -6 -6z"/>
<path d="M249 1107 c4 -4 18 -3 32 2 23 9 22 9 -8 8 -18 -1 -28 -6 -24 -10z"/>
<path d="M815 1110 c-3 -5 -2 -10 4 -10 5 0 13 5 16 10 3 6 2 10 -4 10 -5 0
-13 -4 -16 -10z"/>
<path d="M2223 1105 c0 -8 4 -12 9 -9 4 3 8 9 8 15 0 5 -4 9 -8 9 -5 0 -9 -7
-9 -15z"/>
<path d="M390 1100 c0 -5 -8 -10 -17 -10 -13 0 -14 -3 -6 -11 9 -9 16 -8 27 4
18 18 20 27 6 27 -5 0 -10 -4 -10 -10z"/>
<path d="M1453 1084 c0 -17 2 -22 7 -13 5 6 6 18 3 26 -8 19 -10 16 -10 -13z"/>
<path d="M1488 1095 c18 -13 27 -14 35 -6 8 8 7 11 -5 11 -9 0 -25 3 -35 6
-13 5 -11 1 5 -11z"/>
<path d="M845 1089 c-4 -6 -14 -8 -22 -5 -8 3 -11 1 -8 -4 8 -14 18 -13 41 5
10 8 14 15 7 15 -6 0 -15 -5 -18 -11z"/>
<path d="M910 1096 c0 -2 9 -6 20 -9 11 -3 20 -1 20 4 0 5 -9 9 -20 9 -11 0
-20 -2 -20 -4z"/>
<path d="M1560 1095 c0 -10 29 -24 34 -17 3 6 -3 12 -14 15 -11 3 -20 4 -20 2z"/>
<path d="M1716 1085 c-16 -12 -17 -15 -4 -15 9 0 18 7 22 15 7 18 6 18 -18 0z"/>
<path d="M1930 1094 c0 -6 7 -19 16 -30 14 -18 14 -18 3 6 -14 31 -19 36 -19
24z"/>
<path d="M1533 1070 c-3 -11 -14 -20 -24 -20 -12 0 -16 5 -13 15 4 8 1 15 -5
15 -6 0 -11 -8 -11 -18 0 -10 -4 -23 -10 -30 -7 -9 -7 -9 2 -2 19 16 25 12 33
-22 l7 -33 13 35 c8 22 14 30 17 20 3 -8 3 -2 0 15 -4 27 -3 29 13 15 17 -14
17 -13 6 8 -14 27 -21 28 -28 2z"/>
<path d="M1640 1080 c0 -5 5 -10 11 -10 5 0 7 5 4 10 -3 6 -8 10 -11 10 -2 0
-4 -4 -4 -10z"/>
<path d="M2260 1086 c0 -9 30 -14 35 -6 4 6 -3 10 -14 10 -12 0 -21 -2 -21 -4z"/>
<path d="M406 1064 c-8 -20 -8 -24 2 -24 4 0 8 9 9 20 2 24 -3 26 -11 4z"/>
<path d="M270 1059 c0 -5 5 -7 10 -4 6 3 10 8 10 11 0 2 -4 4 -10 4 -5 0 -10
-5 -10 -11z"/>
<path d="M866 1062 c-5 -9 41 -8 51 1 3 4 -5 7 -20 7 -14 0 -28 -4 -31 -8z"/>
<path d="M358 1053 c7 -3 16 -2 19 1 4 3 -2 6 -13 5 -11 0 -14 -3 -6 -6z"/>
<path d="M2240 1045 c-9 -10 -9 -15 -1 -15 6 0 11 5 11 11 0 5 5 7 10 4 6 -3
10 -1 10 4 0 16 -16 13 -30 -4z"/>
<path d="M2298 1053 c7 -3 16 -2 19 1 4 3 -2 6 -13 5 -11 0 -14 -3 -6 -6z"/>
<path d="M2675 1050 c-3 -5 -1 -10 4 -10 6 0 11 5 11 10 0 6 -2 10 -4 10 -3 0
-8 -4 -11 -10z"/>
<path d="M2869 1003 c-1 -27 -2 -71 -3 -99 -1 -28 2 -62 5 -75 6 -22 10 23 14
174 0 26 -3 47 -7 47 -4 0 -9 -21 -9 -47z"/>
<path d="M1967 1019 c3 -13 10 -29 14 -35 5 -6 6 -14 2 -17 -3 -4 -1 -7 6 -7
14 0 4 49 -15 69 -11 12 -12 11 -7 -10z"/>
<path d="M2262 1020 c-26 -24 -27 -30 -7 -30 8 0 14 5 13 11 -2 6 3 14 10 16
9 3 12 -1 10 -12 -2 -10 3 -19 10 -21 7 -1 8 0 2 3 -5 2 -8 9 -5 14 4 5 2 16
-2 24 -8 13 -12 12 -31 -5z"/>
<path d="M351 1027 c2 -1 13 -9 24 -17 19 -14 19 -14 6 3 -7 9 -18 17 -24 17
-6 0 -8 -1 -6 -3z"/>
<path d="M2795 1021 c-29 -7 -29 -7 -7 -15 15 -5 27 -2 38 8 16 17 15 17 -31
7z"/>
<path d="M2076 1011 c-17 -6 -17 -8 -3 -14 8 -3 21 1 27 9 13 15 6 17 -24 5z"/>
<path d="M136 983 c-6 -28 -2 -40 25 -77 17 -25 49 -57 70 -72 21 -14 40 -33
42 -42 4 -13 5 -12 6 3 1 13 -16 35 -44 59 -56 46 -76 77 -85 124 l-6 37 -8
-32z"/>
<path d="M835 1000 c-3 -6 1 -7 9 -4 18 7 21 14 7 14 -6 0 -13 -4 -16 -10z"/>
<path d="M870 1001 c0 -5 7 -12 16 -15 8 -3 13 -2 9 3 -3 5 1 12 7 14 7 3 3 6
-9 6 -13 1 -23 -3 -23 -8z"/>
<path d="M1470 1000 c0 -13 18 -22 24 -11 3 5 -1 11 -9 15 -8 3 -15 1 -15 -4z"/>
<path d="M2698 1003 c7 -3 16 -2 19 1 4 3 -2 6 -13 5 -11 0 -14 -3 -6 -6z"/>
<path d="M854 982 c4 -7 11 -34 16 -60 l8 -47 1 46 c1 33 -4 51 -16 60 -13 11
-15 11 -9 1z"/>
<path d="M1526 968 c-10 -38 -7 -58 8 -58 11 0 13 9 9 38 -7 46 -9 48 -17 20z"/>
<path d="M1557 983 c-11 -10 -8 -43 3 -43 6 0 10 11 10 25 0 26 -2 29 -13 18z"/>
<path d="M2086 962 l-19 -27 24 22 c12 12 21 24 18 27 -2 2 -13 -8 -23 -22z"/>
<path d="M300 969 c0 -5 5 -7 10 -4 6 3 10 8 10 11 0 2 -4 4 -10 4 -5 0 -10
-5 -10 -11z"/>
<path d="M345 960 l-40 -19 34 5 c19 3 38 7 43 10 5 3 25 8 45 10 53 7 54 14
2 14 -24 0 -62 -9 -84 -20z"/>
<path d="M730 969 c0 -13 29 -18 33 -6 2 7 12 2 25 -13 21 -25 30 -18 12 10
-9 15 -70 22 -70 9z"/>
<path d="M825 943 c8 -32 13 -39 21 -30 10 9 -5 57 -17 57 -7 0 -9 -10 -4 -27z"/>
<path d="M1478 963 c-10 -2 -18 -9 -18 -14 0 -6 8 -5 20 1 11 6 20 13 20 15 0
3 -1 4 -2 4 -2 -1 -11 -3 -20 -6z"/>
<path d="M258 953 c6 -2 18 -2 25 0 6 3 1 5 -13 5 -14 0 -19 -2 -12 -5z"/>
<path d="M615 935 c0 -20 2 -22 15 -11 8 8 22 16 30 19 10 4 8 6 -5 4 -11 -1
-24 1 -30 5 -6 3 -10 -4 -10 -17z"/>
<path d="M2114 948 c-5 -8 -2 -9 11 -4 21 8 57 -2 50 -14 -4 -7 6 -7 35 0 9 2
-62 30 -76 30 -7 0 -16 -5 -20 -12z"/>
<path d="M2027 924 c-14 -19 -15 -24 -4 -24 8 0 18 7 21 16 6 15 8 15 25 0 15
-14 21 -15 27 -4 4 7 3 10 -1 5 -5 -4 -18 1 -29 12 -21 19 -21 19 -39 -5z"/>
<path d="M2788 943 c7 -3 16 -2 19 1 4 3 -2 6 -13 5 -11 0 -14 -3 -6 -6z"/>
<path d="M1815 924 c-11 -8 -27 -13 -36 -11 -12 3 -15 -2 -14 -17 3 -30 3 -30
18 -17 8 6 17 8 20 4 4 -3 7 -1 7 5 0 7 9 12 20 12 13 0 20 7 20 20 0 24 -8
25 -35 4z"/>
<path d="M320 920 c0 -5 5 -10 10 -10 6 0 10 5 10 10 0 6 -4 10 -10 10 -5 0
-10 -4 -10 -10z"/>
<path d="M502 920 c-18 -4 -36 -11 -40 -15 -4 -5 4 -5 18 -2 14 4 42 7 63 7
23 0 36 4 32 10 -7 11 -25 11 -73 0z"/>
<path d="M902 895 c-7 -25 -8 -43 -2 -49 13 -13 22 15 18 56 l-4 33 -12 -40z"/>
<path d="M965 912 c3 -26 34 -92 44 -92 5 0 1 18 -10 40 -10 21 -19 43 -19 49
0 5 -4 12 -9 15 -4 3 -7 -2 -6 -12z"/>
<path d="M1985 920 c-3 -5 -2 -10 4 -10 5 0 13 5 16 10 3 6 2 10 -4 10 -5 0
-13 -4 -16 -10z"/>
<path d="M2132 910 c16 -26 37 -33 33 -12 -1 9 -8 16 -14 15 -6 -2 -11 2 -11
7 0 6 -5 10 -10 10 -6 0 -5 -8 2 -20z"/>
<path d="M640 913 c0 -6 18 -30 40 -53 40 -42 57 -78 47 -103 -3 -7 4 -24 14
-38 l19 -24 0 32 c0 17 -12 54 -26 81 -26 50 -94 126 -94 105z"/>
<path d="M2985 910 c3 -5 8 -10 11 -10 2 0 4 5 4 10 0 6 -5 10 -11 10 -5 0 -7
-4 -4 -10z"/>
<path d="M2650 874 c-8 -22 -16 -42 -18 -46 -2 -5 2 -8 8 -8 7 0 14 9 17 20 3
11 9 20 14 20 5 0 6 -8 3 -17 -5 -15 -3 -15 10 1 9 11 16 26 16 34 0 18 56 9
80 -13 9 -8 22 -15 28 -15 20 0 42 -45 44 -88 1 -23 5 -42 10 -42 4 0 8 -28 9
-62 0 -46 3 -56 8 -38 5 14 7 41 6 60 -1 19 -2 54 -3 78 -1 24 -6 41 -10 38
-5 -3 -16 12 -25 32 -24 52 -61 75 -127 80 l-55 4 -15 -38z"/>
<path d="M484 889 c-42 -12 -82 -55 -65 -72 10 -9 11 -8 6 6 -4 9 -4 17 0 17
9 0 34 -31 35 -42 0 -5 -23 -8 -51 -8 -42 0 -50 -3 -47 -17 2 -9 9 -18 17 -21
8 -3 11 0 7 7 -15 23 6 10 44 -29 37 -37 60 -50 60 -32 1 26 17 32 51 18 49
-20 123 -31 115 -17 -4 6 -22 11 -39 12 -18 0 -41 4 -52 9 -13 5 3 7 41 3 51
-5 61 -3 61 11 0 10 -4 13 -11 7 -13 -10 -137 -8 -155 3 -6 4 -11 4 -10 -1 3
-18 -1 -33 -10 -33 -4 0 -7 10 -7 23 1 12 -3 28 -8 36 -9 12 -7 12 14 1 24
-12 24 -12 8 6 -17 19 -15 19 55 13 40 -3 85 -12 101 -18 16 -6 31 -9 34 -6
12 11 -71 35 -125 36 -49 0 -54 2 -33 10 23 10 67 7 130 -8 21 -5 23 -3 12 8
-14 15 -129 19 -174 6 -16 -4 -28 -3 -28 2 0 5 24 14 53 20 49 9 49 10 12 9
-88 -2 -92 3 -20 27 50 17 61 24 40 24 -16 -1 -44 -5 -61 -10z m-22 -136 c-10
-4 -10 -8 -1 -19 14 -17 -2 -19 -19 -2 -18 18 -14 28 11 27 12 0 16 -3 9 -6z"/>
<path d="M930 864 c-8 -21 -16 -42 -18 -46 -2 -5 1 -8 6 -8 13 0 35 54 30 76
-2 11 -8 3 -18 -22z"/>
<path d="M1729 883 c-13 -16 -12 -17 4 -4 16 13 21 21 13 21 -2 0 -10 -8 -17
-17z"/>
<path d="M1827 884 c-3 -3 -3 -12 0 -20 3 -8 0 -21 -7 -29 -9 -10 -9 -15 -1
-15 6 0 11 6 11 13 0 8 4 7 11 -3 9 -13 10 -12 5 3 -3 11 0 17 9 17 18 0 19
12 3 28 -13 13 -22 15 -31 6z"/>
<path d="M535 870 c-24 -6 -19 -8 28 -9 31 0 57 2 57 7 0 10 -48 11 -85 2z"/>
<path d="M1774 845 c-8 -19 4 -85 14 -85 12 0 32 22 32 35 0 5 -4 3 -9 -4 -8
-12 -11 -9 -17 14 -5 19 -3 30 4 33 14 4 6 22 -9 22 -5 0 -12 -7 -15 -15z"/>
<path d="M570 846 c0 -2 18 -6 40 -8 22 -2 40 0 40 4 0 5 -18 8 -40 8 -22 0
-40 -2 -40 -4z"/>
<path d="M938 811 c-15 -22 -23 -43 -19 -45 12 -7 53 52 49 71 -2 10 -12 2
-30 -26z"/>
<path d="M1728 842 c-11 -4 -14 -12 -10 -19 6 -9 12 -7 25 7 17 21 14 23 -15
12z"/>
<path d="M2027 844 c-4 -4 -7 -12 -7 -17 0 -6 3 -7 7 -4 3 4 11 -1 18 -10 10
-13 13 -14 20 -2 5 8 4 10 0 6 -5 -4 -14 2 -20 13 -6 11 -14 17 -18 14z"/>
<path d="M51 786 c2 -29 6 -43 13 -39 6 3 5 0 -1 -8 -9 -8 -13 -45 -13 -106 0
-84 2 -93 19 -93 24 0 29 24 27 145 -1 57 3 95 9 95 7 0 7 3 0 8 -5 4 -10 14
-10 22 0 8 -10 16 -23 18 -20 3 -22 0 -21 -42z"/>
<path d="M680 821 c0 -5 7 -12 16 -15 14 -5 15 -4 4 9 -14 17 -20 19 -20 6z"/>
<path d="M1416 815 c-3 -8 -1 -15 4 -15 13 0 22 18 11 24 -5 3 -11 -1 -15 -9z"/>
<path d="M1867 818 c-25 -19 -32 -71 -13 -87 22 -18 29 -9 17 22 -8 20 -6 29
12 46 15 13 30 18 45 14 13 -3 22 -1 22 6 0 15 -62 14 -83 -1z"/>
<path d="M2160 819 c0 -5 5 -7 10 -4 6 3 10 8 10 11 0 2 -4 4 -10 4 -5 0 -10
-5 -10 -11z"/>
<path d="M202 804 c10 -10 20 -15 24 -12 3 4 -5 12 -18 18 -22 12 -22 12 -6
-6z"/>
<path d="M2721 798 c-14 -23 -14 -23 8 -4 22 20 25 26 13 26 -4 0 -13 -10 -21
-22z"/>
<path d="M299 778 c8 -42 48 -102 82 -122 43 -25 41 -19 -5 29 -43 44 -67 99
-39 88 9 -4 11 0 7 11 -3 9 -10 16 -14 16 -5 0 -15 2 -23 5 -11 5 -13 -1 -8
-27z"/>
<path d="M1013 798 c2 -7 9 -14 15 -14 26 -3 26 -5 7 -21 -18 -14 -18 -15 -2
-9 10 3 24 6 30 6 6 0 0 11 -13 25 -25 27 -44 33 -37 13z"/>
<path d="M1479 793 c12 -24 41 -43 63 -43 7 0 4 6 -7 12 -11 6 -31 20 -44 32
l-24 21 12 -22z"/>
<path d="M1953 800 c-13 -5 -23 -7 -23 -5 0 3 -9 -4 -20 -15 -22 -22 -24 -29
-12 -48 9 -14 42 -6 42 10 0 6 -6 5 -15 -2 -12 -10 -15 -10 -15 4 0 9 5 16 11
16 5 0 7 5 4 10 -4 6 5 10 19 10 14 0 26 5 26 11 0 6 9 9 20 6 11 -3 18 -1 14
4 -6 11 -22 11 -51 -1z"/>
<path d="M2188 803 c7 -3 16 -2 19 1 4 3 -2 6 -13 5 -11 0 -14 -3 -6 -6z"/>
<path d="M1433 793 c-18 -6 -16 -23 1 -23 17 0 30 16 19 23 -5 2 -14 2 -20 0z"/>
<path d="M1735 780 c3 -5 11 -10 16 -10 6 0 7 5 4 10 -3 6 -11 10 -16 10 -6 0
-7 -4 -4 -10z"/>
<path d="M2374 775 c8 -8 18 -15 22 -15 3 0 1 7 -6 15 -7 8 -17 15 -22 15 -5
0 -3 -7 6 -15z"/>
<path d="M200 770 c8 -5 20 -10 25 -10 6 0 3 5 -5 10 -8 5 -19 10 -25 10 -5 0
-3 -5 5 -10z"/>
<path d="M535 772 c15 -16 97 -33 92 -19 -1 5 -10 11 -18 13 -7 1 -30 6 -49
10 -25 5 -32 4 -25 -4z"/>
<path d="M270 758 c0 -9 5 -20 11 -23 17 -11 20 0 4 21 -13 17 -14 17 -15 2z"/>
<path d="M690 755 c0 -8 4 -15 10 -15 5 0 7 7 4 15 -4 8 -8 15 -10 15 -2 0 -4
-7 -4 -15z"/>
<path d="M340 751 c0 -6 5 -13 10 -16 6 -3 10 1 10 9 0 9 -4 16 -10 16 -5 0
-10 -4 -10 -9z"/>
<path d="M1413 754 c9 -3 15 -10 12 -15 -4 -5 -1 -9 5 -9 19 0 5 25 -16 27
-16 2 -16 1 -1 -3z"/>
<path d="M1463 753 c-7 -2 -13 -12 -13 -21 1 -16 1 -16 11 0 9 16 12 16 42 -2
35 -22 47 -25 47 -12 0 7 -66 44 -73 41 -1 0 -8 -3 -14 -6z"/>
<path d="M2165 743 c2 -10 4 -21 4 -25 1 -5 5 -8 10 -8 10 0 3 38 -9 45 -5 3
-7 -3 -5 -12z"/>
<path d="M1790 742 c0 -5 7 -15 15 -22 8 -7 15 -9 15 -6 0 4 -7 14 -15 22 -8
9 -15 11 -15 6z"/>
<path d="M2768 743 c-10 -2 -18 -9 -18 -14 0 -6 8 -5 20 1 11 6 20 13 20 15 0
3 -1 4 -2 4 -2 -1 -11 -3 -20 -6z"/>
<path d="M1080 724 c0 -8 5 -12 10 -9 6 4 8 11 5 16 -9 14 -15 11 -15 -7z"/>
<path d="M2126 723 c-6 -14 -5 -15 5 -6 7 7 10 15 7 18 -3 3 -9 -2 -12 -12z"/>
<path d="M371 725 c0 -16 26 -47 56 -67 44 -29 49 -21 8 12 -21 17 -44 38 -51
48 -7 9 -13 13 -13 7z"/>
<path d="M400 720 c0 -15 107 -83 122 -77 9 3 7 7 -7 12 -11 5 -41 23 -67 42
-27 18 -48 29 -48 23z"/>
<path d="M1260 723 c0 -6 -9 -13 -20 -16 -11 -3 -20 -12 -20 -21 0 -11 7 -9
27 10 14 13 23 27 20 31 -4 3 -7 2 -7 -4z"/>
<path d="M1390 719 c0 -6 -9 -9 -20 -6 -24 6 -27 -8 -3 -18 10 -3 19 -1 21 5
3 7 8 8 16 1 9 -8 13 -7 13 4 0 8 -6 16 -14 19 -7 3 -13 0 -13 -5z"/>
<path d="M690 706 c0 -8 4 -17 9 -20 5 -4 7 3 4 14 -6 23 -13 26 -13 6z"/>
<path d="M125 544 c2 -95 7 -170 13 -176 6 -6 9 11 6 54 -1 35 -3 114 -3 176
-1 61 -5 112 -9 112 -5 0 -8 -75 -7 -166z"/>
<path d="M507 704 c-4 -4 -7 -10 -7 -14 0 -11 69 -45 76 -37 6 6 -1 10 -45 23
-8 3 -11 7 -8 11 4 3 20 0 36 -7 16 -6 38 -10 48 -8 12 3 3 9 -25 17 -24 7
-49 14 -56 17 -6 2 -15 1 -19 -2z"/>
<path d="M725 688 c3 -32 -5 -48 -21 -48 -9 0 -14 -12 -14 -34 0 -29 -3 -33
-20 -29 -11 3 -20 14 -20 25 0 10 -4 17 -9 14 -5 -3 -7 -16 -3 -29 5 -20 4
-21 -12 -8 -9 8 -15 20 -12 28 3 7 2 23 -3 35 l-8 23 -7 -22 c-4 -11 -6 -25
-5 -29 3 -20 -2 -44 -9 -44 -5 0 -14 11 -20 25 -14 30 -42 33 -42 5 0 -12 5
-17 14 -14 8 3 17 -1 22 -8 4 -7 4 -10 -1 -6 -4 4 -14 3 -21 -3 -8 -7 -14 -7
-19 1 -8 13 -55 13 -55 0 0 -5 -4 -10 -10 -10 -5 0 -10 8 -10 17 0 14 -3 14
-12 5 -10 -10 -10 -15 2 -22 13 -9 13 -10 0 -10 -8 0 -20 12 -27 26 l-12 27
58 -6 c47 -5 58 -4 58 8 0 12 -12 15 -48 14 -33 -2 -58 4 -84 19 -43 26 -41
26 -49 6 -5 -13 -3 -14 6 -6 10 8 20 5 38 -10 l25 -20 -32 6 c-18 3 -35 1 -38
-4 -4 -6 8 -10 26 -10 27 0 30 -2 19 -15 -7 -9 -19 -14 -27 -11 -7 3 -13 2
-13 -3 0 -10 42 -23 49 -16 2 3 -1 5 -8 5 -7 0 -9 5 -6 10 3 6 10 10 15 10 12
0 41 -56 33 -64 -4 -3 2 -6 12 -6 14 0 15 3 6 14 -9 11 -6 16 16 24 52 20 66
19 74 -8 4 -14 7 -19 8 -11 1 7 7 11 15 8 10 -4 13 -1 9 9 -9 25 36 17 47 -8
8 -19 9 -18 4 10 -5 31 7 44 21 22 3 -5 20 -10 36 -10 22 0 32 6 39 24 5 13
14 27 19 31 6 3 11 14 11 24 0 10 7 24 15 31 12 10 13 16 4 26 -17 20 -26 17
-24 -8z"/>
<path d="M1030 700 c8 -5 20 -10 25 -10 6 0 3 5 -5 10 -8 5 -19 10 -25 10 -5
0 -3 -5 5 -10z"/>
<path d="M943 678 c-18 -13 -33 -27 -33 -31 0 -12 58 25 64 40 7 17 6 17 -31
-9z"/>
<path d="M1180 690 c0 -5 4 -10 9 -10 6 0 13 5 16 10 3 6 -1 10 -9 10 -9 0
-16 -4 -16 -10z"/>
<path d="M1900 691 c0 -10 19 -25 25 -20 1 2 -3 10 -11 17 -8 7 -14 8 -14 3z"/>
<path d="M2193 693 c9 -2 23 -2 30 0 6 3 -1 5 -18 5 -16 0 -22 -2 -12 -5z"/>
<path d="M1244 682 c5 -8 66 -4 66 4 0 2 -16 4 -36 4 -19 0 -33 -4 -30 -8z"/>
<path d="M668 673 c7 -3 16 -2 19 1 4 3 -2 6 -13 5 -11 0 -14 -3 -6 -6z"/>
<path d="M1321 673 c-1 -7 -9 -13 -18 -13 -10 0 -25 -5 -33 -11 -11 -8 -8 -9
15 -4 17 3 38 6 48 6 9 0 17 5 17 10 0 6 -4 8 -9 5 -5 -4 -12 0 -14 6 -4 10
-6 10 -6 1z"/>
<path d="M1370 670 c-8 -5 -12 -12 -9 -15 4 -3 12 1 19 10 14 17 11 19 -10 5z"/>
<path d="M1430 666 c10 -13 40 -12 40 1 0 3 -7 3 -15 -1 -8 -3 -15 -1 -15 4 0
6 -5 10 -11 10 -8 0 -8 -4 1 -14z"/>
<path d="M1474 653 c-28 -40 -48 -82 -42 -88 3 -3 13 11 23 32 25 52 37 61 71
58 27 -3 28 -3 10 11 -28 20 -40 18 -62 -13z"/>
<path d="M1117 664 c-14 -14 -6 -22 27 -26 19 -2 33 -1 30 3 -2 4 6 10 18 13
13 2 4 4 -19 3 -24 -2 -44 1 -46 6 -1 4 -6 5 -10 1z"/>
<path d="M664 649 c-3 -6 -15 -9 -25 -6 -11 3 -19 2 -19 -3 0 -18 43 -18 63 1
17 16 18 19 4 19 -8 0 -19 -5 -23 -11z"/>
<path d="M983 642 c-10 -9 -14 -14 -9 -9 15 10 38 9 31 -3 -3 -6 1 -7 9 -4 20
8 20 20 1 27 -7 3 -22 -2 -32 -11z"/>
<path d="M1045 650 c-4 -6 6 -10 24 -8 32 2 33 10 1 15 -10 1 -22 -2 -25 -7z"/>
<path d="M1220 650 c0 -5 5 -10 10 -10 6 0 10 5 10 10 0 6 -4 10 -10 10 -5 0
-10 -4 -10 -10z"/>
<path d="M1390 649 c0 -5 5 -7 10 -4 6 3 10 8 10 11 0 2 -4 4 -10 4 -5 0 -10
-5 -10 -11z"/>
<path d="M1956 637 c3 -10 9 -15 12 -12 3 3 0 11 -7 18 -10 9 -11 8 -5 -6z"/>
<path d="M1987 636 c-4 -10 -1 -13 8 -10 8 3 20 -4 27 -15 7 -12 18 -21 25
-21 26 0 10 31 -24 49 -28 14 -30 14 -36 -3z"/>
<path d="M909 620 c-13 -10 -19 -19 -13 -20 7 0 22 9 35 20 13 10 19 19 13 20
-7 0 -22 -9 -35 -20z"/>
<path d="M1325 630 c3 -5 8 -10 11 -10 2 0 4 5 4 10 0 6 -5 10 -11 10 -5 0 -7
-4 -4 -10z"/>
<path d="M1120 620 c0 -5 5 -10 11 -10 5 0 7 5 4 10 -3 6 -8 10 -11 10 -2 0
-4 -4 -4 -10z"/>
<path d="M1377 617 c3 -5 11 -6 18 -3 7 2 18 -1 24 -7 9 -9 11 -8 6 4 -4 10
-16 16 -30 15 -13 0 -21 -5 -18 -9z"/>
<path d="M1010 605 c-11 -14 -10 -14 11 -7 13 5 30 7 38 4 8 -3 11 0 7 7 -10
16 -41 14 -56 -4z"/>
<path d="M1083 613 c4 -3 1 -13 -6 -21 -10 -13 -9 -14 3 -10 19 6 26 38 9 38
-7 0 -9 -3 -6 -7z"/>
<path d="M1200 611 c0 -5 9 -7 20 -4 11 3 20 7 20 9 0 2 -9 4 -20 4 -11 0 -20
-4 -20 -9z"/>
<path d="M1271 599 c7 -14 14 -19 16 -12 3 7 10 10 18 7 7 -3 16 0 20 6 5 8
-1 11 -16 9 -13 -2 -30 0 -37 5 -12 7 -12 4 -1 -15z"/>
<path d="M1158 593 c7 -3 16 -2 19 1 4 3 -2 6 -13 5 -11 0 -14 -3 -6 -6z"/>
<path d="M943 570 c1 -11 5 -20 10 -20 5 0 7 7 3 15 -3 8 -1 15 3 15 5 0 11
-5 13 -12 3 -8 9 -8 24 0 10 6 15 12 9 13 -5 0 -22 3 -37 5 -22 4 -27 1 -25
-16z"/>
<path d="M2873 550 c0 -25 2 -35 4 -22 2 12 2 32 0 45 -2 12 -4 2 -4 -23z"/>
<path d="M305 560 c3 -5 8 -10 11 -10 2 0 4 5 4 10 0 6 -5 10 -11 10 -5 0 -7
-4 -4 -10z"/>
<path d="M1020 560 c0 -5 10 -10 23 -10 18 0 19 2 7 10 -19 13 -30 13 -30 0z"/>
<path d="M1145 560 c-3 -5 1 -10 10 -10 9 0 13 5 10 10 -3 6 -8 10 -10 10 -2
0 -7 -4 -10 -10z"/>
<path d="M1260 562 c0 -5 7 -9 15 -9 8 0 15 4 15 9 0 4 -7 8 -15 8 -8 0 -15
-4 -15 -8z"/>
<path d="M2480 550 c0 -13 18 -22 24 -11 3 5 -1 11 -9 15 -8 3 -15 1 -15 -4z"/>
<path d="M352 526 c13 -13 27 -21 32 -18 4 2 3 8 -4 12 -7 4 -8 10 -4 12 5 3
4 3 -3 2 -7 -2 -15 1 -18 6 -4 6 -11 10 -16 10 -5 0 1 -11 13 -24z"/>
<path d="M915 530 c4 -6 11 -8 16 -5 14 9 11 15 -7 15 -8 0 -12 -5 -9 -10z"/>
<path d="M1000 530 c-13 -8 -12 -10 3 -10 9 0 17 5 17 10 0 12 -1 12 -20 0z"/>
<path d="M1072 533 c-10 -4 -9 -8 5 -19 22 -16 33 -18 33 -4 0 6 -7 10 -16 10
-8 0 -12 5 -9 10 7 11 6 11 -13 3z"/>
<path d="M1105 530 c3 -5 13 -10 21 -10 8 0 14 -3 14 -7 0 -5 11 -13 24 -19
23 -11 24 -10 13 7 -7 11 -17 19 -24 19 -7 0 -13 5 -13 10 0 6 -9 10 -21 10
-11 0 -17 -4 -14 -10z"/>
<path d="M63 523 c-7 -2 -13 -15 -13 -28 0 -16 7 -24 26 -28 23 -4 25 -2 22
26 -3 31 -13 39 -35 30z"/>
<path d="M267 523 c-12 -11 -8 -40 8 -53 13 -11 14 -8 9 21 -8 40 -9 41 -17
32z"/>
<path d="M1585 520 c-3 -5 -1 -10 4 -10 6 0 11 5 11 10 0 6 -2 10 -4 10 -3 0
-8 -4 -11 -10z"/>
<path d="M1928 523 c18 -2 45 -2 60 0 15 2 0 4 -33 4 -33 0 -45 -2 -27 -4z"/>
<path d="M315 511 c-3 -5 0 -13 6 -17 7 -4 9 -3 5 4 -3 5 0 13 6 15 9 4 10 6
1 6 -6 1 -14 -3 -18 -8z"/>
<path d="M1250 498 c0 -29 16 -55 27 -44 4 5 3 11 -3 13 -6 2 -9 15 -6 28 2
15 0 25 -7 25 -6 0 -11 -10 -11 -22z"/>
<path d="M970 501 c0 -6 7 -11 15 -11 8 0 15 -4 15 -10 0 -5 7 -10 15 -10 21
0 19 16 -2 24 -10 3 -24 9 -30 12 -7 3 -13 1 -13 -5z"/>
<path d="M1028 503 c7 -3 16 -2 19 1 4 3 -2 6 -13 5 -11 0 -14 -3 -6 -6z"/>
<path d="M1513 483 c-14 -28 -11 -39 6 -28 6 3 8 11 5 17 -4 6 1 8 15 3 26 -8
60 8 40 20 -7 5 -14 4 -17 -3 -2 -7 -8 -12 -13 -12 -4 0 -6 7 -3 15 11 27 -20
16 -33 -12z"/>
<path d="M2580 501 c0 -5 7 -12 16 -15 14 -5 15 -4 4 9 -14 17 -20 19 -20 6z"/>
<path d="M1980 490 c-9 -6 -10 -10 -3 -10 6 0 15 5 18 10 8 12 4 12 -15 0z"/>
<path d="M1070 479 c0 -5 5 -7 10 -4 6 3 10 8 10 11 0 2 -4 4 -10 4 -5 0 -10
-5 -10 -11z"/>
<path d="M1126 476 c3 -8 13 -12 27 -8 20 5 20 6 1 13 -29 11 -34 10 -28 -5z"/>
<path d="M1300 470 c0 -5 5 -10 11 -10 5 0 7 5 4 10 -3 6 -8 10 -11 10 -2 0
-4 -4 -4 -10z"/>
<path d="M2486 472 c-3 -5 -35 -8 -71 -7 -37 0 -68 -3 -71 -7 -6 -9 284 -4
293 6 4 3 -23 6 -59 5 -36 -1 -70 1 -76 5 -6 3 -13 3 -16 -2z"/>
<path d="M2745 470 c-3 -5 1 -10 10 -10 9 0 13 5 10 10 -3 6 -8 10 -10 10 -2
0 -7 -4 -10 -10z"/>
<path d="M1085 460 c-3 -5 1 -10 9 -10 8 0 18 5 21 10 3 6 -1 10 -9 10 -8 0
-18 -4 -21 -10z"/>
<path d="M2260 460 c-11 -7 -6 -10 20 -10 26 0 31 3 20 10 -8 5 -17 10 -20 10
-3 0 -12 -5 -20 -10z"/>
<path d="M1320 441 c-6 -12 -7 -21 -1 -21 10 0 24 30 17 37 -2 3 -9 -5 -16
-16z"/>
<path d="M1911 451 c-7 -5 -23 -7 -35 -4 -18 4 -19 3 -4 -6 11 -8 25 -8 43 -1
15 6 31 8 36 4 5 -3 9 0 9 5 0 13 -30 14 -49 2z"/>
<path d="M1991 451 c-6 -4 -2 -12 10 -20 12 -7 18 -8 15 -2 -4 5 4 11 16 13
21 3 21 4 -4 9 -15 3 -31 3 -37 0z"/>
<path d="M850 430 c0 -5 5 -10 10 -10 6 0 10 5 10 10 0 6 -4 10 -10 10 -5 0
-10 -4 -10 -10z"/>
<path d="M1356 430 c-19 -6 -19 -7 1 -12 25 -7 53 6 31 14 -7 3 -22 2 -32 -2z"/>
<path d="M2350 420 c-12 -7 -10 -9 7 -7 12 0 19 5 17 9 -6 10 -6 10 -24 -2z"/>
<path d="M2535 420 c-3 -5 -2 -10 4 -10 5 0 13 5 16 10 3 6 2 10 -4 10 -5 0
-13 -4 -16 -10z"/>
<path d="M768 413 c7 -3 16 -2 19 1 4 3 -2 6 -13 5 -11 0 -14 -3 -6 -6z"/>
<path d="M807 406 c-4 -10 0 -12 14 -9 10 3 16 9 13 14 -8 13 -21 11 -27 -5z"/>
<path d="M876 413 c-11 -11 -6 -23 9 -23 9 0 33 -18 55 -40 30 -30 40 -36 44
-24 8 22 8 24 -9 24 -8 0 -15 5 -15 10 0 6 -7 10 -15 10 -8 0 -15 5 -15 10 0
6 -7 10 -16 10 -8 0 -13 4 -10 9 7 10 -19 23 -28 14z"/>
<path d="M1940 410 c0 -5 5 -10 11 -10 5 0 7 5 4 10 -3 6 -8 10 -11 10 -2 0
-4 -4 -4 -10z"/>
<path d="M980 395 c-7 -9 -8 -15 -2 -15 5 0 12 7 16 15 3 8 4 15 2 15 -2 0 -9
-7 -16 -15z"/>
<path d="M1171 378 c-6 -10 -7 -18 -2 -18 5 0 11 5 13 12 3 7 21 12 41 11 20
-1 37 2 37 6 0 17 -78 6 -89 -11z"/>
<path d="M1400 390 c-9 -6 -10 -10 -3 -10 6 0 15 5 18 10 8 12 4 12 -15 0z"/>
<path d="M2003 393 c-15 -5 -17 -23 -4 -23 5 0 11 7 15 15 3 8 4 15 3 14 -1 0
-8 -3 -14 -6z"/>
<path d="M2334 389 c-3 -5 6 -9 20 -9 31 0 34 6 6 13 -11 3 -23 1 -26 -4z"/>
<path d="M2580 389 c0 -5 5 -7 10 -4 6 3 10 8 10 11 0 2 -4 4 -10 4 -5 0 -10
-5 -10 -11z"/>
<path d="M385 380 c-4 -6 3 -10 14 -10 25 0 27 6 6 13 -8 4 -17 2 -20 -3z"/>
<path d="M553 383 c9 -2 25 -2 35 0 9 3 1 5 -18 5 -19 0 -27 -2 -17 -5z"/>
<path d="M1117 376 c-10 -8 -14 -16 -10 -19 5 -3 20 3 33 14 17 12 20 19 10
18 -8 0 -23 -6 -33 -13z"/>
<path d="M1835 380 c-19 -8 -19 -9 3 -9 12 -1 22 4 22 9 0 6 -1 10 -2 9 -2 0
-12 -4 -23 -9z"/>
<path d="M200 371 c0 -7 -5 -9 -12 -5 -7 5 -8 3 -3 -5 5 -9 10 -10 18 -2 6 6
8 14 4 18 -4 3 -7 1 -7 -6z"/>
<path d="M1261 363 c-10 -11 -16 -13 -19 -5 -2 7 -10 12 -18 12 -9 0 -12 -4
-9 -10 3 -5 -1 -10 -9 -10 -8 0 -17 -4 -20 -9 -8 -12 27 -8 37 4 6 7 10 6 13
-2 9 -20 53 5 54 30 0 12 -14 7 -29 -10z"/>
<path d="M1677 369 c7 -7 15 -10 18 -7 3 3 -2 9 -12 12 -14 6 -15 5 -6 -5z"/>
<path d="M1948 373 c7 -3 16 -2 19 1 4 3 -2 6 -13 5 -11 0 -14 -3 -6 -6z"/>
<path d="M2457 373 c-4 -3 -7 -11 -7 -17 0 -6 5 -5 12 2 6 6 9 14 7 17 -3 3
-9 2 -12 -2z"/>
<path d="M2487 373 c-4 -3 -7 -11 -7 -17 0 -6 5 -5 12 2 6 6 9 14 7 17 -3 3
-9 2 -12 -2z"/>
<path d="M238 363 c7 -3 16 -2 19 1 4 3 -2 6 -13 5 -11 0 -14 -3 -6 -6z"/>
<path d="M590 360 c-13 -8 -12 -10 3 -10 9 0 17 5 17 10 0 12 -1 12 -20 0z"/>
<path d="M1055 360 c3 -5 8 -10 11 -10 2 0 4 5 4 10 0 6 -5 10 -11 10 -5 0 -7
-4 -4 -10z"/>
<path d="M1396 361 c-3 -5 6 -8 20 -8 15 0 30 -7 35 -14 7 -11 9 -11 9 2 0 25
-52 41 -64 20z"/>
<path d="M2985 360 c3 -5 8 -10 11 -10 2 0 4 5 4 10 0 6 -5 10 -11 10 -5 0 -7
-4 -4 -10z"/>
<path d="M410 350 c-8 -5 -12 -12 -9 -15 4 -3 12 1 19 10 14 17 11 19 -10 5z"/>
<path d="M1295 350 c3 -5 8 -10 11 -10 2 0 4 5 4 10 0 6 -5 10 -11 10 -5 0 -7
-4 -4 -10z"/>
<path d="M1480 351 c0 -6 4 -13 10 -16 6 -3 7 1 4 9 -7 18 -14 21 -14 7z"/>
<path d="M2287 346 c-3 -7 -1 -18 5 -24 12 -12 40 -4 32 9 -3 6 5 7 20 3 17
-4 26 -2 26 6 0 7 -11 10 -28 9 -15 -2 -32 0 -38 4 -7 4 -14 1 -17 -7z"/>
<path d="M130 318 c0 -36 10 -32 14 6 2 14 -1 26 -5 26 -5 0 -9 -14 -9 -32z"/>
<path d="M450 336 c0 -9 -7 -16 -15 -16 -8 0 -15 -4 -15 -10 0 -5 2 -10 4 -10
2 0 12 -3 22 -7 13 -5 16 -3 11 10 -4 11 -1 17 9 17 18 0 14 22 -4 28 -7 2
-12 -3 -12 -12z"/>
<path d="M1030 340 c0 -5 5 -10 10 -10 6 0 10 5 10 10 0 6 -4 10 -10 10 -5 0
-10 -4 -10 -10z"/>
<path d="M1080 340 c0 -5 7 -10 16 -10 8 0 12 5 9 10 -3 6 -10 10 -16 10 -5 0
-9 -4 -9 -10z"/>
<path d="M1140 340 c0 -5 5 -10 10 -10 6 0 10 5 10 10 0 6 -4 10 -10 10 -5 0
-10 -4 -10 -10z"/>
<path d="M2040 341 c0 -7 -4 -9 -10 -6 -5 3 -10 1 -10 -4 0 -6 4 -11 9 -11 13
0 25 20 17 27 -3 4 -6 1 -6 -6z"/>
<path d="M310 331 c0 -17 32 -71 42 -71 4 0 -2 17 -14 38 -27 47 -28 48 -28
33z"/>
<path d="M587 329 c7 -7 15 -10 18 -7 3 3 -2 9 -12 12 -14 6 -15 5 -6 -5z"/>
<path d="M1815 330 c-19 -4 -26 -8 -18 -13 7 -4 21 -3 32 2 12 7 21 7 23 1 3
-11 48 -2 48 10 0 8 -38 8 -85 0z"/>
<path d="M1910 326 c0 -19 17 -29 25 -16 3 5 23 10 43 11 37 1 37 1 9 11 -20
7 -32 7 -42 -2 -11 -9 -15 -9 -15 -1 0 6 -4 11 -10 11 -5 0 -10 -6 -10 -14z"/>
<path d="M2380 328 c0 -9 5 -20 10 -23 13 -8 13 5 0 25 -8 13 -10 13 -10 -2z"/>
<path d="M1055 320 c-3 -5 -1 -10 4 -10 6 0 11 5 11 10 0 6 -2 10 -4 10 -3 0
-8 -4 -11 -10z"/>
<path d="M1627 317 c3 -5 36 -7 73 -5 38 1 66 6 64 10 -3 5 -36 7 -74 6 -37
-2 -66 -7 -63 -11z"/>
<path d="M1455 310 c-3 -5 1 -10 9 -10 9 0 16 5 16 10 0 6 -4 10 -9 10 -6 0
-13 -4 -16 -10z"/>
<path d="M175 300 c-3 -5 -1 -10 4 -10 6 0 11 5 11 10 0 6 -2 10 -4 10 -3 0
-8 -4 -11 -10z"/>
<path d="M203 297 c-2 -4 11 -7 31 -5 20 1 36 6 36 10 0 11 -60 6 -67 -5z"/>
<path d="M620 282 c0 -12 89 -12 96 -1 3 5 -18 9 -45 9 -28 0 -51 -4 -51 -8z"/>
<path d="M123 245 c-2 -21 2 -35 8 -35 6 0 9 9 6 20 -3 11 -1 23 4 26 13 8 11
24 -3 24 -8 0 -14 -15 -15 -35z"/>
<path d="M280 272 c0 -7 -11 -12 -25 -12 -14 0 -25 -4 -25 -8 0 -12 38 -8 52
6 6 6 9 15 5 19 -4 3 -7 1 -7 -5z"/>
<path d="M1930 260 c0 -5 12 -10 26 -10 14 0 23 4 19 10 -3 6 -15 10 -26 10
-10 0 -19 -4 -19 -10z"/>
<path d="M172 251 c-11 -6 -9 -9 6 -13 15 -4 19 -2 15 8 -6 16 -4 16 -21 5z"/>
<path d="M1780 244 c36 -8 100 -9 100 -2 0 5 -26 7 -57 7 -32 -1 -51 -3 -43
-5z"/>
<path d="M958 226 c-20 -15 -23 -26 -8 -26 5 0 14 9 20 20 12 23 11 24 -12 6z"/>
<path d="M1210 230 c0 -15 14 -19 31 -9 13 7 19 6 19 -1 0 -6 5 -8 11 -5 6 4
8 9 5 12 -7 8 -66 10 -66 3z"/>
<path d="M1336 232 c-3 -5 1 -9 9 -9 8 0 15 4 15 9 0 4 -4 8 -9 8 -6 0 -12 -4
-15 -8z"/>
<path d="M833 215 c0 -8 4 -12 9 -9 5 3 6 10 3 15 -9 13 -12 11 -12 -6z"/>
<path d="M892 215 c-11 -12 -10 -15 3 -15 8 0 15 7 15 15 0 18 -2 18 -18 0z"/>
<path d="M1295 219 c-11 -16 -1 -19 13 -3 7 8 8 14 3 14 -5 0 -13 -5 -16 -11z"/>
<path d="M2330 220 c-9 -6 -10 -10 -3 -10 6 0 15 5 18 10 8 12 4 12 -15 0z"/>
<path d="M2464 218 c-4 -6 -3 -8 4 -4 6 3 15 -1 20 -10 6 -11 12 -13 16 -6 4
6 -2 16 -13 22 -14 7 -22 7 -27 -2z"/>
<path d="M178 213 c7 -3 16 -2 19 1 4 3 -2 6 -13 5 -11 0 -14 -3 -6 -6z"/>
<path d="M775 211 c-3 -5 -1 -12 5 -16 5 -3 10 -2 10 4 0 6 8 8 18 5 14 -5 15
-4 2 5 -19 13 -27 14 -35 2z"/>
<path d="M1018 213 c7 -3 16 -2 19 1 4 3 -2 6 -13 5 -11 0 -14 -3 -6 -6z"/>
<path d="M2410 212 c0 -6 9 -12 20 -15 11 -3 20 -3 20 -1 0 2 -9 8 -20 14 -11
6 -20 7 -20 2z"/>
<path d="M1710 200 c0 -5 4 -10 9 -10 6 0 13 5 16 10 3 6 -1 10 -9 10 -9 0
-16 -4 -16 -10z"/>
<path d="M1800 199 c0 -15 16 -17 39 -5 22 12 22 13 -8 13 -17 0 -31 -4 -31
-8z"/>
<path d="M2346 195 c-11 -8 -15 -15 -9 -15 6 0 16 7 23 15 16 19 11 19 -14 0z"/>
<path d="M2380 199 c0 -5 5 -7 10 -4 6 3 10 8 10 11 0 2 -4 4 -10 4 -5 0 -10
-5 -10 -11z"/>
<path d="M120 185 c0 -8 5 -15 10 -15 6 0 10 7 10 15 0 8 -4 15 -10 15 -5 0
-10 -7 -10 -15z"/>
<path d="M1336 191 c-3 -5 1 -11 9 -14 9 -4 12 -1 8 9 -6 16 -10 17 -17 5z"/>
<path d="M2298 193 c7 -3 16 -2 19 1 4 3 -2 6 -13 5 -11 0 -14 -3 -6 -6z"/>
<path d="M1150 178 c0 -11 12 -10 30 2 12 7 10 9 -8 7 -12 0 -22 -5 -22 -9z"/>
<path d="M1210 180 c-9 -6 -10 -10 -3 -10 6 0 15 5 18 10 8 12 4 12 -15 0z"/>
<path d="M1270 180 c20 -13 33 -13 25 0 -3 6 -14 10 -23 10 -15 0 -15 -2 -2
-10z"/>
<path d="M1668 13 c7 -3 16 -2 19 1 4 3 -2 6 -13 5 -11 0 -14 -3 -6 -6z"/>
<path d="M1208 3 c7 -3 16 -2 19 1 4 3 -2 6 -13 5 -11 0 -14 -3 -6 -6z"/>
<path d="M2428 3 c7 -3 16 -2 19 1 4 3 -2 6 -13 5 -11 0 -14 -3 -6 -6z"/>
<path d="M2468 3 c7 -3 16 -2 19 1 4 3 -2 6 -13 5 -11 0 -14 -3 -6 -6z"/>
<path d="M2618 3 c7 -3 16 -2 19 1 4 3 -2 6 -13 5 -11 0 -14 -3 -6 -6z"/>
</g>
</svg>
